<?xml version="1.0" encoding="utf-8" standalone="no"?>
<!DOCTYPE svg PUBLIC "-//W3C//DTD SVG 1.1//EN"
  "http://www.w3.org/Graphics/SVG/1.1/DTD/svg11.dtd">
<svg xmlns:xlink="http://www.w3.org/1999/xlink" width="406.4565pt" height="358.331625pt" viewBox="0 0 406.4565 358.331625" xmlns="http://www.w3.org/2000/svg" version="1.1">
 <metadata>
  <rdf:RDF xmlns:dc="http://purl.org/dc/elements/1.1/" xmlns:cc="http://creativecommons.org/ns#" xmlns:rdf="http://www.w3.org/1999/02/22-rdf-syntax-ns#">
   <cc:Work>
    <dc:type rdf:resource="http://purl.org/dc/dcmitype/StillImage"/>
    <dc:date>2024-03-04T12:20:06.244557</dc:date>
    <dc:format>image/svg+xml</dc:format>
    <dc:creator>
     <cc:Agent>
      <dc:title>Matplotlib v3.7.1, https://matplotlib.org/</dc:title>
     </cc:Agent>
    </dc:creator>
   </cc:Work>
  </rdf:RDF>
 </metadata>
 <defs>
  <style type="text/css">*{stroke-linejoin: round; stroke-linecap: butt}</style>
 </defs>
 <g id="figure_1">
  <g id="patch_1">
   <path d="M 0 358.331625 
L 406.4565 358.331625 
L 406.4565 0 
L 0 0 
z
" style="fill: #ffffff"/>
  </g>
  <g id="axes_1">
   <g id="patch_2">
    <path d="M 64.4565 312.12 
L 399.2565 312.12 
L 399.2565 7.2 
L 64.4565 7.2 
z
" style="fill: #ffffff"/>
   </g>
   <g id="matplotlib.axis_1">
    <g id="xtick_1">
     <g id="line2d_1">
      <defs>
       <path id="m39362df931" d="M 0 0 
L 0 4.8 
" style="stroke: #262626"/>
      </defs>
      <g>
       <use xlink:href="#m39362df931" x="79.674682" y="312.12" style="fill: #262626; stroke: #262626"/>
      </g>
     </g>
     <g id="text_1">
      <!-- D4 -->
      <g style="fill: #262626" transform="translate(70.393432 330.449937) scale(0.132 -0.132)">
       <defs>
        <path id="DejaVuSans-44" d="M 1259 4147 
L 1259 519 
L 2022 519 
Q 2988 519 3436 956 
Q 3884 1394 3884 2338 
Q 3884 3275 3436 3711 
Q 2988 4147 2022 4147 
L 1259 4147 
z
M 628 4666 
L 1925 4666 
Q 3281 4666 3915 4102 
Q 4550 3538 4550 2338 
Q 4550 1131 3912 565 
Q 3275 0 1925 0 
L 628 0 
L 628 4666 
z
" transform="scale(0.015625)"/>
        <path id="DejaVuSans-34" d="M 2419 4116 
L 825 1625 
L 2419 1625 
L 2419 4116 
z
M 2253 4666 
L 3047 4666 
L 3047 1625 
L 3713 1625 
L 3713 1100 
L 3047 1100 
L 3047 0 
L 2419 0 
L 2419 1100 
L 313 1100 
L 313 1709 
L 2253 4666 
z
" transform="scale(0.015625)"/>
       </defs>
       <use xlink:href="#DejaVuSans-44"/>
       <use xlink:href="#DejaVuSans-34" x="77.001953"/>
      </g>
     </g>
    </g>
    <g id="xtick_2">
     <g id="line2d_2">
      <g>
       <use xlink:href="#m39362df931" x="155.765591" y="312.12" style="fill: #262626; stroke: #262626"/>
      </g>
     </g>
     <g id="text_2">
      <!-- D5 -->
      <g style="fill: #262626" transform="translate(146.484341 330.449937) scale(0.132 -0.132)">
       <defs>
        <path id="DejaVuSans-35" d="M 691 4666 
L 3169 4666 
L 3169 4134 
L 1269 4134 
L 1269 2991 
Q 1406 3038 1543 3061 
Q 1681 3084 1819 3084 
Q 2600 3084 3056 2656 
Q 3513 2228 3513 1497 
Q 3513 744 3044 326 
Q 2575 -91 1722 -91 
Q 1428 -91 1123 -41 
Q 819 9 494 109 
L 494 744 
Q 775 591 1075 516 
Q 1375 441 1709 441 
Q 2250 441 2565 725 
Q 2881 1009 2881 1497 
Q 2881 1984 2565 2268 
Q 2250 2553 1709 2553 
Q 1456 2553 1204 2497 
Q 953 2441 691 2322 
L 691 4666 
z
" transform="scale(0.015625)"/>
       </defs>
       <use xlink:href="#DejaVuSans-44"/>
       <use xlink:href="#DejaVuSans-35" x="77.001953"/>
      </g>
     </g>
    </g>
    <g id="xtick_3">
     <g id="line2d_3">
      <g>
       <use xlink:href="#m39362df931" x="231.8565" y="312.12" style="fill: #262626; stroke: #262626"/>
      </g>
     </g>
     <g id="text_3">
      <!-- D6 -->
      <g style="fill: #262626" transform="translate(222.57525 330.449937) scale(0.132 -0.132)">
       <defs>
        <path id="DejaVuSans-36" d="M 2113 2584 
Q 1688 2584 1439 2293 
Q 1191 2003 1191 1497 
Q 1191 994 1439 701 
Q 1688 409 2113 409 
Q 2538 409 2786 701 
Q 3034 994 3034 1497 
Q 3034 2003 2786 2293 
Q 2538 2584 2113 2584 
z
M 3366 4563 
L 3366 3988 
Q 3128 4100 2886 4159 
Q 2644 4219 2406 4219 
Q 1781 4219 1451 3797 
Q 1122 3375 1075 2522 
Q 1259 2794 1537 2939 
Q 1816 3084 2150 3084 
Q 2853 3084 3261 2657 
Q 3669 2231 3669 1497 
Q 3669 778 3244 343 
Q 2819 -91 2113 -91 
Q 1303 -91 875 529 
Q 447 1150 447 2328 
Q 447 3434 972 4092 
Q 1497 4750 2381 4750 
Q 2619 4750 2861 4703 
Q 3103 4656 3366 4563 
z
" transform="scale(0.015625)"/>
       </defs>
       <use xlink:href="#DejaVuSans-44"/>
       <use xlink:href="#DejaVuSans-36" x="77.001953"/>
      </g>
     </g>
    </g>
    <g id="xtick_4">
     <g id="line2d_4">
      <g>
       <use xlink:href="#m39362df931" x="307.947409" y="312.12" style="fill: #262626; stroke: #262626"/>
      </g>
     </g>
     <g id="text_4">
      <!-- D9 -->
      <g style="fill: #262626" transform="translate(298.666159 330.449937) scale(0.132 -0.132)">
       <defs>
        <path id="DejaVuSans-39" d="M 703 97 
L 703 672 
Q 941 559 1184 500 
Q 1428 441 1663 441 
Q 2288 441 2617 861 
Q 2947 1281 2994 2138 
Q 2813 1869 2534 1725 
Q 2256 1581 1919 1581 
Q 1219 1581 811 2004 
Q 403 2428 403 3163 
Q 403 3881 828 4315 
Q 1253 4750 1959 4750 
Q 2769 4750 3195 4129 
Q 3622 3509 3622 2328 
Q 3622 1225 3098 567 
Q 2575 -91 1691 -91 
Q 1453 -91 1209 -44 
Q 966 3 703 97 
z
M 1959 2075 
Q 2384 2075 2632 2365 
Q 2881 2656 2881 3163 
Q 2881 3666 2632 3958 
Q 2384 4250 1959 4250 
Q 1534 4250 1286 3958 
Q 1038 3666 1038 3163 
Q 1038 2656 1286 2365 
Q 1534 2075 1959 2075 
z
" transform="scale(0.015625)"/>
       </defs>
       <use xlink:href="#DejaVuSans-44"/>
       <use xlink:href="#DejaVuSans-39" x="77.001953"/>
      </g>
     </g>
    </g>
    <g id="xtick_5">
     <g id="line2d_5">
      <g>
       <use xlink:href="#m39362df931" x="384.038318" y="312.12" style="fill: #262626; stroke: #262626"/>
      </g>
     </g>
     <g id="text_5">
      <!-- D12 -->
      <g style="fill: #262626" transform="translate(370.557818 330.449937) scale(0.132 -0.132)">
       <defs>
        <path id="DejaVuSans-31" d="M 794 531 
L 1825 531 
L 1825 4091 
L 703 3866 
L 703 4441 
L 1819 4666 
L 2450 4666 
L 2450 531 
L 3481 531 
L 3481 0 
L 794 0 
L 794 531 
z
" transform="scale(0.015625)"/>
        <path id="DejaVuSans-32" d="M 1228 531 
L 3431 531 
L 3431 0 
L 469 0 
L 469 531 
Q 828 903 1448 1529 
Q 2069 2156 2228 2338 
Q 2531 2678 2651 2914 
Q 2772 3150 2772 3378 
Q 2772 3750 2511 3984 
Q 2250 4219 1831 4219 
Q 1534 4219 1204 4116 
Q 875 4013 500 3803 
L 500 4441 
Q 881 4594 1212 4672 
Q 1544 4750 1819 4750 
Q 2544 4750 2975 4387 
Q 3406 4025 3406 3419 
Q 3406 3131 3298 2873 
Q 3191 2616 2906 2266 
Q 2828 2175 2409 1742 
Q 1991 1309 1228 531 
z
" transform="scale(0.015625)"/>
       </defs>
       <use xlink:href="#DejaVuSans-44"/>
       <use xlink:href="#DejaVuSans-31" x="77.001953"/>
       <use xlink:href="#DejaVuSans-32" x="140.625"/>
      </g>
     </g>
    </g>
    <g id="text_6">
     <!-- Timepoint -->
     <g style="fill: #262626" transform="translate(195.877875 348.136875) scale(0.144 -0.144)">
      <defs>
       <path id="DejaVuSans-54" d="M -19 4666 
L 3928 4666 
L 3928 4134 
L 2272 4134 
L 2272 0 
L 1638 0 
L 1638 4134 
L -19 4134 
L -19 4666 
z
" transform="scale(0.015625)"/>
       <path id="DejaVuSans-69" d="M 603 3500 
L 1178 3500 
L 1178 0 
L 603 0 
L 603 3500 
z
M 603 4863 
L 1178 4863 
L 1178 4134 
L 603 4134 
L 603 4863 
z
" transform="scale(0.015625)"/>
       <path id="DejaVuSans-6d" d="M 3328 2828 
Q 3544 3216 3844 3400 
Q 4144 3584 4550 3584 
Q 5097 3584 5394 3201 
Q 5691 2819 5691 2113 
L 5691 0 
L 5113 0 
L 5113 2094 
Q 5113 2597 4934 2840 
Q 4756 3084 4391 3084 
Q 3944 3084 3684 2787 
Q 3425 2491 3425 1978 
L 3425 0 
L 2847 0 
L 2847 2094 
Q 2847 2600 2669 2842 
Q 2491 3084 2119 3084 
Q 1678 3084 1418 2786 
Q 1159 2488 1159 1978 
L 1159 0 
L 581 0 
L 581 3500 
L 1159 3500 
L 1159 2956 
Q 1356 3278 1631 3431 
Q 1906 3584 2284 3584 
Q 2666 3584 2933 3390 
Q 3200 3197 3328 2828 
z
" transform="scale(0.015625)"/>
       <path id="DejaVuSans-65" d="M 3597 1894 
L 3597 1613 
L 953 1613 
Q 991 1019 1311 708 
Q 1631 397 2203 397 
Q 2534 397 2845 478 
Q 3156 559 3463 722 
L 3463 178 
Q 3153 47 2828 -22 
Q 2503 -91 2169 -91 
Q 1331 -91 842 396 
Q 353 884 353 1716 
Q 353 2575 817 3079 
Q 1281 3584 2069 3584 
Q 2775 3584 3186 3129 
Q 3597 2675 3597 1894 
z
M 3022 2063 
Q 3016 2534 2758 2815 
Q 2500 3097 2075 3097 
Q 1594 3097 1305 2825 
Q 1016 2553 972 2059 
L 3022 2063 
z
" transform="scale(0.015625)"/>
       <path id="DejaVuSans-70" d="M 1159 525 
L 1159 -1331 
L 581 -1331 
L 581 3500 
L 1159 3500 
L 1159 2969 
Q 1341 3281 1617 3432 
Q 1894 3584 2278 3584 
Q 2916 3584 3314 3078 
Q 3713 2572 3713 1747 
Q 3713 922 3314 415 
Q 2916 -91 2278 -91 
Q 1894 -91 1617 61 
Q 1341 213 1159 525 
z
M 3116 1747 
Q 3116 2381 2855 2742 
Q 2594 3103 2138 3103 
Q 1681 3103 1420 2742 
Q 1159 2381 1159 1747 
Q 1159 1113 1420 752 
Q 1681 391 2138 391 
Q 2594 391 2855 752 
Q 3116 1113 3116 1747 
z
" transform="scale(0.015625)"/>
       <path id="DejaVuSans-6f" d="M 1959 3097 
Q 1497 3097 1228 2736 
Q 959 2375 959 1747 
Q 959 1119 1226 758 
Q 1494 397 1959 397 
Q 2419 397 2687 759 
Q 2956 1122 2956 1747 
Q 2956 2369 2687 2733 
Q 2419 3097 1959 3097 
z
M 1959 3584 
Q 2709 3584 3137 3096 
Q 3566 2609 3566 1747 
Q 3566 888 3137 398 
Q 2709 -91 1959 -91 
Q 1206 -91 779 398 
Q 353 888 353 1747 
Q 353 2609 779 3096 
Q 1206 3584 1959 3584 
z
" transform="scale(0.015625)"/>
       <path id="DejaVuSans-6e" d="M 3513 2113 
L 3513 0 
L 2938 0 
L 2938 2094 
Q 2938 2591 2744 2837 
Q 2550 3084 2163 3084 
Q 1697 3084 1428 2787 
Q 1159 2491 1159 1978 
L 1159 0 
L 581 0 
L 581 3500 
L 1159 3500 
L 1159 2956 
Q 1366 3272 1645 3428 
Q 1925 3584 2291 3584 
Q 2894 3584 3203 3211 
Q 3513 2838 3513 2113 
z
" transform="scale(0.015625)"/>
       <path id="DejaVuSans-74" d="M 1172 4494 
L 1172 3500 
L 2356 3500 
L 2356 3053 
L 1172 3053 
L 1172 1153 
Q 1172 725 1289 603 
Q 1406 481 1766 481 
L 2356 481 
L 2356 0 
L 1766 0 
Q 1100 0 847 248 
Q 594 497 594 1153 
L 594 3053 
L 172 3053 
L 172 3500 
L 594 3500 
L 594 4494 
L 1172 4494 
z
" transform="scale(0.015625)"/>
      </defs>
      <use xlink:href="#DejaVuSans-54"/>
      <use xlink:href="#DejaVuSans-69" x="57.958984"/>
      <use xlink:href="#DejaVuSans-6d" x="85.742188"/>
      <use xlink:href="#DejaVuSans-65" x="183.154297"/>
      <use xlink:href="#DejaVuSans-70" x="244.677734"/>
      <use xlink:href="#DejaVuSans-6f" x="308.154297"/>
      <use xlink:href="#DejaVuSans-69" x="369.335938"/>
      <use xlink:href="#DejaVuSans-6e" x="397.119141"/>
      <use xlink:href="#DejaVuSans-74" x="460.498047"/>
     </g>
    </g>
   </g>
   <g id="matplotlib.axis_2">
    <g id="ytick_1">
     <g id="line2d_6">
      <defs>
       <path id="m1074e8947a" d="M 0 0 
L -4.8 0 
" style="stroke: #262626"/>
      </defs>
      <g>
       <use xlink:href="#m1074e8947a" x="64.4565" y="271.283406" style="fill: #262626; stroke: #262626"/>
      </g>
     </g>
     <g id="text_7">
      <!-- $\mathdefault{10^{-3}}$ -->
      <g style="fill: #262626" transform="translate(25.1365 276.298374) scale(0.132 -0.132)">
       <defs>
        <path id="DejaVuSans-30" d="M 2034 4250 
Q 1547 4250 1301 3770 
Q 1056 3291 1056 2328 
Q 1056 1369 1301 889 
Q 1547 409 2034 409 
Q 2525 409 2770 889 
Q 3016 1369 3016 2328 
Q 3016 3291 2770 3770 
Q 2525 4250 2034 4250 
z
M 2034 4750 
Q 2819 4750 3233 4129 
Q 3647 3509 3647 2328 
Q 3647 1150 3233 529 
Q 2819 -91 2034 -91 
Q 1250 -91 836 529 
Q 422 1150 422 2328 
Q 422 3509 836 4129 
Q 1250 4750 2034 4750 
z
" transform="scale(0.015625)"/>
        <path id="DejaVuSans-2212" d="M 678 2272 
L 4684 2272 
L 4684 1741 
L 678 1741 
L 678 2272 
z
" transform="scale(0.015625)"/>
        <path id="DejaVuSans-33" d="M 2597 2516 
Q 3050 2419 3304 2112 
Q 3559 1806 3559 1356 
Q 3559 666 3084 287 
Q 2609 -91 1734 -91 
Q 1441 -91 1130 -33 
Q 819 25 488 141 
L 488 750 
Q 750 597 1062 519 
Q 1375 441 1716 441 
Q 2309 441 2620 675 
Q 2931 909 2931 1356 
Q 2931 1769 2642 2001 
Q 2353 2234 1838 2234 
L 1294 2234 
L 1294 2753 
L 1863 2753 
Q 2328 2753 2575 2939 
Q 2822 3125 2822 3475 
Q 2822 3834 2567 4026 
Q 2313 4219 1838 4219 
Q 1578 4219 1281 4162 
Q 984 4106 628 3988 
L 628 4550 
Q 988 4650 1302 4700 
Q 1616 4750 1894 4750 
Q 2613 4750 3031 4423 
Q 3450 4097 3450 3541 
Q 3450 3153 3228 2886 
Q 3006 2619 2597 2516 
z
" transform="scale(0.015625)"/>
       </defs>
       <use xlink:href="#DejaVuSans-31" transform="translate(0 0.765625)"/>
       <use xlink:href="#DejaVuSans-30" transform="translate(63.623047 0.765625)"/>
       <use xlink:href="#DejaVuSans-2212" transform="translate(128.203125 39.046875) scale(0.7)"/>
       <use xlink:href="#DejaVuSans-33" transform="translate(186.855469 39.046875) scale(0.7)"/>
      </g>
     </g>
    </g>
    <g id="ytick_2">
     <g id="line2d_7">
      <g>
       <use xlink:href="#m1074e8947a" x="64.4565" y="110.203833" style="fill: #262626; stroke: #262626"/>
      </g>
     </g>
     <g id="text_8">
      <!-- $\mathdefault{10^{-2}}$ -->
      <g style="fill: #262626" transform="translate(25.1365 115.218802) scale(0.132 -0.132)">
       <use xlink:href="#DejaVuSans-31" transform="translate(0 0.765625)"/>
       <use xlink:href="#DejaVuSans-30" transform="translate(63.623047 0.765625)"/>
       <use xlink:href="#DejaVuSans-2212" transform="translate(128.203125 39.046875) scale(0.7)"/>
       <use xlink:href="#DejaVuSans-32" transform="translate(186.855469 39.046875) scale(0.7)"/>
      </g>
     </g>
    </g>
    <g id="ytick_3">
     <g id="line2d_8">
      <defs>
       <path id="m4a0f20ffcc" d="M 0 0 
L -3.2 0 
" style="stroke: #262626; stroke-width: 0.8"/>
      </defs>
      <g>
       <use xlink:href="#m4a0f20ffcc" x="64.4565" y="307.018707" style="fill: #262626; stroke: #262626; stroke-width: 0.8"/>
      </g>
     </g>
    </g>
    <g id="ytick_4">
     <g id="line2d_9">
      <g>
       <use xlink:href="#m4a0f20ffcc" x="64.4565" y="296.234947" style="fill: #262626; stroke: #262626; stroke-width: 0.8"/>
      </g>
     </g>
    </g>
    <g id="ytick_5">
     <g id="line2d_10">
      <g>
       <use xlink:href="#m4a0f20ffcc" x="64.4565" y="286.893629" style="fill: #262626; stroke: #262626; stroke-width: 0.8"/>
      </g>
     </g>
    </g>
    <g id="ytick_6">
     <g id="line2d_11">
      <g>
       <use xlink:href="#m4a0f20ffcc" x="64.4565" y="278.654003" style="fill: #262626; stroke: #262626; stroke-width: 0.8"/>
      </g>
     </g>
    </g>
    <g id="ytick_7">
     <g id="line2d_12">
      <g>
       <use xlink:href="#m4a0f20ffcc" x="64.4565" y="222.793622" style="fill: #262626; stroke: #262626; stroke-width: 0.8"/>
      </g>
     </g>
    </g>
    <g id="ytick_8">
     <g id="line2d_13">
      <g>
       <use xlink:href="#m4a0f20ffcc" x="64.4565" y="194.428918" style="fill: #262626; stroke: #262626; stroke-width: 0.8"/>
      </g>
     </g>
    </g>
    <g id="ytick_9">
     <g id="line2d_14">
      <g>
       <use xlink:href="#m4a0f20ffcc" x="64.4565" y="174.303839" style="fill: #262626; stroke: #262626; stroke-width: 0.8"/>
      </g>
     </g>
    </g>
    <g id="ytick_10">
     <g id="line2d_15">
      <g>
       <use xlink:href="#m4a0f20ffcc" x="64.4565" y="158.693616" style="fill: #262626; stroke: #262626; stroke-width: 0.8"/>
      </g>
     </g>
    </g>
    <g id="ytick_11">
     <g id="line2d_16">
      <g>
       <use xlink:href="#m4a0f20ffcc" x="64.4565" y="145.939135" style="fill: #262626; stroke: #262626; stroke-width: 0.8"/>
      </g>
     </g>
    </g>
    <g id="ytick_12">
     <g id="line2d_17">
      <g>
       <use xlink:href="#m4a0f20ffcc" x="64.4565" y="135.155374" style="fill: #262626; stroke: #262626; stroke-width: 0.8"/>
      </g>
     </g>
    </g>
    <g id="ytick_13">
     <g id="line2d_18">
      <g>
       <use xlink:href="#m4a0f20ffcc" x="64.4565" y="125.814056" style="fill: #262626; stroke: #262626; stroke-width: 0.8"/>
      </g>
     </g>
    </g>
    <g id="ytick_14">
     <g id="line2d_19">
      <g>
       <use xlink:href="#m4a0f20ffcc" x="64.4565" y="117.57443" style="fill: #262626; stroke: #262626; stroke-width: 0.8"/>
      </g>
     </g>
    </g>
    <g id="ytick_15">
     <g id="line2d_20">
      <g>
       <use xlink:href="#m4a0f20ffcc" x="64.4565" y="61.71405" style="fill: #262626; stroke: #262626; stroke-width: 0.8"/>
      </g>
     </g>
    </g>
    <g id="ytick_16">
     <g id="line2d_21">
      <g>
       <use xlink:href="#m4a0f20ffcc" x="64.4565" y="33.349345" style="fill: #262626; stroke: #262626; stroke-width: 0.8"/>
      </g>
     </g>
    </g>
    <g id="ytick_17">
     <g id="line2d_22">
      <g>
       <use xlink:href="#m4a0f20ffcc" x="64.4565" y="13.224267" style="fill: #262626; stroke: #262626; stroke-width: 0.8"/>
      </g>
     </g>
    </g>
    <g id="text_9">
     <!-- Relative abundance -->
     <g style="fill: #262626" transform="translate(18.14175 231.028875) rotate(-90) scale(0.144 -0.144)">
      <defs>
       <path id="DejaVuSans-52" d="M 2841 2188 
Q 3044 2119 3236 1894 
Q 3428 1669 3622 1275 
L 4263 0 
L 3584 0 
L 2988 1197 
Q 2756 1666 2539 1819 
Q 2322 1972 1947 1972 
L 1259 1972 
L 1259 0 
L 628 0 
L 628 4666 
L 2053 4666 
Q 2853 4666 3247 4331 
Q 3641 3997 3641 3322 
Q 3641 2881 3436 2590 
Q 3231 2300 2841 2188 
z
M 1259 4147 
L 1259 2491 
L 2053 2491 
Q 2509 2491 2742 2702 
Q 2975 2913 2975 3322 
Q 2975 3731 2742 3939 
Q 2509 4147 2053 4147 
L 1259 4147 
z
" transform="scale(0.015625)"/>
       <path id="DejaVuSans-6c" d="M 603 4863 
L 1178 4863 
L 1178 0 
L 603 0 
L 603 4863 
z
" transform="scale(0.015625)"/>
       <path id="DejaVuSans-61" d="M 2194 1759 
Q 1497 1759 1228 1600 
Q 959 1441 959 1056 
Q 959 750 1161 570 
Q 1363 391 1709 391 
Q 2188 391 2477 730 
Q 2766 1069 2766 1631 
L 2766 1759 
L 2194 1759 
z
M 3341 1997 
L 3341 0 
L 2766 0 
L 2766 531 
Q 2569 213 2275 61 
Q 1981 -91 1556 -91 
Q 1019 -91 701 211 
Q 384 513 384 1019 
Q 384 1609 779 1909 
Q 1175 2209 1959 2209 
L 2766 2209 
L 2766 2266 
Q 2766 2663 2505 2880 
Q 2244 3097 1772 3097 
Q 1472 3097 1187 3025 
Q 903 2953 641 2809 
L 641 3341 
Q 956 3463 1253 3523 
Q 1550 3584 1831 3584 
Q 2591 3584 2966 3190 
Q 3341 2797 3341 1997 
z
" transform="scale(0.015625)"/>
       <path id="DejaVuSans-76" d="M 191 3500 
L 800 3500 
L 1894 563 
L 2988 3500 
L 3597 3500 
L 2284 0 
L 1503 0 
L 191 3500 
z
" transform="scale(0.015625)"/>
       <path id="DejaVuSans-20" transform="scale(0.015625)"/>
       <path id="DejaVuSans-62" d="M 3116 1747 
Q 3116 2381 2855 2742 
Q 2594 3103 2138 3103 
Q 1681 3103 1420 2742 
Q 1159 2381 1159 1747 
Q 1159 1113 1420 752 
Q 1681 391 2138 391 
Q 2594 391 2855 752 
Q 3116 1113 3116 1747 
z
M 1159 2969 
Q 1341 3281 1617 3432 
Q 1894 3584 2278 3584 
Q 2916 3584 3314 3078 
Q 3713 2572 3713 1747 
Q 3713 922 3314 415 
Q 2916 -91 2278 -91 
Q 1894 -91 1617 61 
Q 1341 213 1159 525 
L 1159 0 
L 581 0 
L 581 4863 
L 1159 4863 
L 1159 2969 
z
" transform="scale(0.015625)"/>
       <path id="DejaVuSans-75" d="M 544 1381 
L 544 3500 
L 1119 3500 
L 1119 1403 
Q 1119 906 1312 657 
Q 1506 409 1894 409 
Q 2359 409 2629 706 
Q 2900 1003 2900 1516 
L 2900 3500 
L 3475 3500 
L 3475 0 
L 2900 0 
L 2900 538 
Q 2691 219 2414 64 
Q 2138 -91 1772 -91 
Q 1169 -91 856 284 
Q 544 659 544 1381 
z
M 1991 3584 
L 1991 3584 
z
" transform="scale(0.015625)"/>
       <path id="DejaVuSans-64" d="M 2906 2969 
L 2906 4863 
L 3481 4863 
L 3481 0 
L 2906 0 
L 2906 525 
Q 2725 213 2448 61 
Q 2172 -91 1784 -91 
Q 1150 -91 751 415 
Q 353 922 353 1747 
Q 353 2572 751 3078 
Q 1150 3584 1784 3584 
Q 2172 3584 2448 3432 
Q 2725 3281 2906 2969 
z
M 947 1747 
Q 947 1113 1208 752 
Q 1469 391 1925 391 
Q 2381 391 2643 752 
Q 2906 1113 2906 1747 
Q 2906 2381 2643 2742 
Q 2381 3103 1925 3103 
Q 1469 3103 1208 2742 
Q 947 2381 947 1747 
z
" transform="scale(0.015625)"/>
       <path id="DejaVuSans-63" d="M 3122 3366 
L 3122 2828 
Q 2878 2963 2633 3030 
Q 2388 3097 2138 3097 
Q 1578 3097 1268 2742 
Q 959 2388 959 1747 
Q 959 1106 1268 751 
Q 1578 397 2138 397 
Q 2388 397 2633 464 
Q 2878 531 3122 666 
L 3122 134 
Q 2881 22 2623 -34 
Q 2366 -91 2075 -91 
Q 1284 -91 818 406 
Q 353 903 353 1747 
Q 353 2603 823 3093 
Q 1294 3584 2113 3584 
Q 2378 3584 2631 3529 
Q 2884 3475 3122 3366 
z
" transform="scale(0.015625)"/>
      </defs>
      <use xlink:href="#DejaVuSans-52"/>
      <use xlink:href="#DejaVuSans-65" x="64.982422"/>
      <use xlink:href="#DejaVuSans-6c" x="126.505859"/>
      <use xlink:href="#DejaVuSans-61" x="154.289062"/>
      <use xlink:href="#DejaVuSans-74" x="215.568359"/>
      <use xlink:href="#DejaVuSans-69" x="254.777344"/>
      <use xlink:href="#DejaVuSans-76" x="282.560547"/>
      <use xlink:href="#DejaVuSans-65" x="341.740234"/>
      <use xlink:href="#DejaVuSans-20" x="403.263672"/>
      <use xlink:href="#DejaVuSans-61" x="435.050781"/>
      <use xlink:href="#DejaVuSans-62" x="496.330078"/>
      <use xlink:href="#DejaVuSans-75" x="559.806641"/>
      <use xlink:href="#DejaVuSans-6e" x="623.185547"/>
      <use xlink:href="#DejaVuSans-64" x="686.564453"/>
      <use xlink:href="#DejaVuSans-61" x="750.041016"/>
      <use xlink:href="#DejaVuSans-6e" x="811.320312"/>
      <use xlink:href="#DejaVuSans-63" x="874.699219"/>
      <use xlink:href="#DejaVuSans-65" x="929.679688"/>
     </g>
    </g>
   </g>
   <g id="PolyCollection_1"/>
   <g id="PolyCollection_2"/>
   <g id="PolyCollection_3"/>
   <g id="PolyCollection_4"/>
   <g id="PolyCollection_5"/>
   <g id="PolyCollection_6"/>
   <g id="PolyCollection_7"/>
   <g id="PolyCollection_8"/>
   <g id="PolyCollection_9"/>
   <g id="PolyCollection_10"/>
   <g id="PathCollection_1">
    <defs>
     <path id="C0_0_fb9050bd05" d="M 0 3 
C 0.795609 3 1.55874 2.683901 2.12132 2.12132 
C 2.683901 1.55874 3 0.795609 3 -0 
C 3 -0.795609 2.683901 -1.55874 2.12132 -2.12132 
C 1.55874 -2.683901 0.795609 -3 0 -3 
C -0.795609 -3 -1.55874 -2.683901 -2.12132 -2.12132 
C -2.683901 -1.55874 -3 -0.795609 -3 0 
C -3 0.795609 -2.683901 1.55874 -2.12132 2.12132 
C -1.55874 2.683901 -0.795609 3 0 3 
z
"/>
    </defs>
    <g clip-path="url(#pe87b634093)">
     <use xlink:href="#C0_0_fb9050bd05" x="79.674682" y="101.280717" style="fill: #1f77b4; fill-opacity: 0.8; stroke: #ffffff; stroke-opacity: 0.8; stroke-width: 0.48"/>
    </g>
    <g clip-path="url(#pe87b634093)">
     <use xlink:href="#C0_0_fb9050bd05" x="79.674682" y="49.190346" style="fill: #ff7f0e; fill-opacity: 0.8; stroke: #ffffff; stroke-opacity: 0.8; stroke-width: 0.48"/>
    </g>
    <g clip-path="url(#pe87b634093)">
     <use xlink:href="#C0_0_fb9050bd05" x="79.674682" y="126.514339" style="fill: #2ca02c; fill-opacity: 0.8; stroke: #ffffff; stroke-opacity: 0.8; stroke-width: 0.48"/>
    </g>
    <g clip-path="url(#pe87b634093)">
     <use xlink:href="#C0_0_fb9050bd05" x="79.674682" y="76.972567" style="fill: #d62728; fill-opacity: 0.8; stroke: #ffffff; stroke-opacity: 0.8; stroke-width: 0.48"/>
    </g>
    <g clip-path="url(#pe87b634093)">
     <use xlink:href="#C0_0_fb9050bd05" x="79.674682" y="32.327977" style="fill: #9467bd; fill-opacity: 0.8; stroke: #ffffff; stroke-opacity: 0.8; stroke-width: 0.48"/>
    </g>
    <g clip-path="url(#pe87b634093)">
     <use xlink:href="#C0_0_fb9050bd05" x="79.674682" y="83.535749" style="fill: #8c564b; fill-opacity: 0.8; stroke: #ffffff; stroke-opacity: 0.8; stroke-width: 0.48"/>
    </g>
    <g clip-path="url(#pe87b634093)">
     <use xlink:href="#C0_0_fb9050bd05" x="79.674682" y="109.643613" style="fill: #e377c2; fill-opacity: 0.8; stroke: #ffffff; stroke-opacity: 0.8; stroke-width: 0.48"/>
    </g>
    <g clip-path="url(#pe87b634093)">
     <use xlink:href="#C0_0_fb9050bd05" x="79.674682" y="70.495148" style="fill: #7f7f7f; fill-opacity: 0.8; stroke: #ffffff; stroke-opacity: 0.8; stroke-width: 0.48"/>
    </g>
    <g clip-path="url(#pe87b634093)">
     <use xlink:href="#C0_0_fb9050bd05" x="79.674682" y="69.706459" style="fill: #bcbd22; fill-opacity: 0.8; stroke: #ffffff; stroke-opacity: 0.8; stroke-width: 0.48"/>
    </g>
    <g clip-path="url(#pe87b634093)">
     <use xlink:href="#C0_0_fb9050bd05" x="79.674682" y="194.426119" style="fill: #17becf; fill-opacity: 0.8; stroke: #ffffff; stroke-opacity: 0.8; stroke-width: 0.48"/>
    </g>
    <g clip-path="url(#pe87b634093)">
     <use xlink:href="#C0_0_fb9050bd05" x="155.765591" y="64.712887" style="fill: #1f77b4; fill-opacity: 0.8; stroke: #ffffff; stroke-opacity: 0.8; stroke-width: 0.48"/>
    </g>
    <g clip-path="url(#pe87b634093)">
     <use xlink:href="#C0_0_fb9050bd05" x="155.765591" y="57.634993" style="fill: #ff7f0e; fill-opacity: 0.8; stroke: #ffffff; stroke-opacity: 0.8; stroke-width: 0.48"/>
    </g>
    <g clip-path="url(#pe87b634093)">
     <use xlink:href="#C0_0_fb9050bd05" x="155.765591" y="109.090599" style="fill: #2ca02c; fill-opacity: 0.8; stroke: #ffffff; stroke-opacity: 0.8; stroke-width: 0.48"/>
    </g>
    <g clip-path="url(#pe87b634093)">
     <use xlink:href="#C0_0_fb9050bd05" x="155.765591" y="56.717095" style="fill: #d62728; fill-opacity: 0.8; stroke: #ffffff; stroke-opacity: 0.8; stroke-width: 0.48"/>
    </g>
    <g clip-path="url(#pe87b634093)">
     <use xlink:href="#C0_0_fb9050bd05" x="155.765591" y="81.278909" style="fill: #9467bd; fill-opacity: 0.8; stroke: #ffffff; stroke-opacity: 0.8; stroke-width: 0.48"/>
    </g>
    <g clip-path="url(#pe87b634093)">
     <use xlink:href="#C0_0_fb9050bd05" x="155.765591" y="21.06" style="fill: #e377c2; fill-opacity: 0.8; stroke: #ffffff; stroke-opacity: 0.8; stroke-width: 0.48"/>
    </g>
    <g clip-path="url(#pe87b634093)">
     <use xlink:href="#C0_0_fb9050bd05" x="155.765591" y="43.465012" style="fill: #7f7f7f; fill-opacity: 0.8; stroke: #ffffff; stroke-opacity: 0.8; stroke-width: 0.48"/>
    </g>
    <g clip-path="url(#pe87b634093)">
     <use xlink:href="#C0_0_fb9050bd05" x="155.765591" y="48.491945" style="fill: #bcbd22; fill-opacity: 0.8; stroke: #ffffff; stroke-opacity: 0.8; stroke-width: 0.48"/>
    </g>
    <g clip-path="url(#pe87b634093)">
     <use xlink:href="#C0_0_fb9050bd05" x="155.765591" y="111.329381" style="fill: #17becf; fill-opacity: 0.8; stroke: #ffffff; stroke-opacity: 0.8; stroke-width: 0.48"/>
    </g>
    <g clip-path="url(#pe87b634093)">
     <use xlink:href="#C0_0_fb9050bd05" x="231.8565" y="172.915729" style="fill: #1f77b4; fill-opacity: 0.8; stroke: #ffffff; stroke-opacity: 0.8; stroke-width: 0.48"/>
    </g>
    <g clip-path="url(#pe87b634093)">
     <use xlink:href="#C0_0_fb9050bd05" x="231.8565" y="131.265133" style="fill: #ff7f0e; fill-opacity: 0.8; stroke: #ffffff; stroke-opacity: 0.8; stroke-width: 0.48"/>
    </g>
    <g clip-path="url(#pe87b634093)">
     <use xlink:href="#C0_0_fb9050bd05" x="231.8565" y="82.210427" style="fill: #2ca02c; fill-opacity: 0.8; stroke: #ffffff; stroke-opacity: 0.8; stroke-width: 0.48"/>
    </g>
    <g clip-path="url(#pe87b634093)">
     <use xlink:href="#C0_0_fb9050bd05" x="231.8565" y="161.54656" style="fill: #d62728; fill-opacity: 0.8; stroke: #ffffff; stroke-opacity: 0.8; stroke-width: 0.48"/>
    </g>
    <g clip-path="url(#pe87b634093)">
     <use xlink:href="#C0_0_fb9050bd05" x="231.8565" y="140.985617" style="fill: #9467bd; fill-opacity: 0.8; stroke: #ffffff; stroke-opacity: 0.8; stroke-width: 0.48"/>
    </g>
    <g clip-path="url(#pe87b634093)">
     <use xlink:href="#C0_0_fb9050bd05" x="231.8565" y="50.608421" style="fill: #8c564b; fill-opacity: 0.8; stroke: #ffffff; stroke-opacity: 0.8; stroke-width: 0.48"/>
    </g>
    <g clip-path="url(#pe87b634093)">
     <use xlink:href="#C0_0_fb9050bd05" x="231.8565" y="33.533345" style="fill: #e377c2; fill-opacity: 0.8; stroke: #ffffff; stroke-opacity: 0.8; stroke-width: 0.48"/>
    </g>
    <g clip-path="url(#pe87b634093)">
     <use xlink:href="#C0_0_fb9050bd05" x="231.8565" y="95.152709" style="fill: #7f7f7f; fill-opacity: 0.8; stroke: #ffffff; stroke-opacity: 0.8; stroke-width: 0.48"/>
    </g>
    <g clip-path="url(#pe87b634093)">
     <use xlink:href="#C0_0_fb9050bd05" x="231.8565" y="96.519971" style="fill: #bcbd22; fill-opacity: 0.8; stroke: #ffffff; stroke-opacity: 0.8; stroke-width: 0.48"/>
    </g>
    <g clip-path="url(#pe87b634093)">
     <use xlink:href="#C0_0_fb9050bd05" x="231.8565" y="103.279595" style="fill: #17becf; fill-opacity: 0.8; stroke: #ffffff; stroke-opacity: 0.8; stroke-width: 0.48"/>
    </g>
    <g clip-path="url(#pe87b634093)">
     <use xlink:href="#C0_0_fb9050bd05" x="307.947409" y="230.161421" style="fill: #1f77b4; fill-opacity: 0.8; stroke: #ffffff; stroke-opacity: 0.8; stroke-width: 0.48"/>
    </g>
    <g clip-path="url(#pe87b634093)">
     <use xlink:href="#C0_0_fb9050bd05" x="307.947409" y="134.753965" style="fill: #ff7f0e; fill-opacity: 0.8; stroke: #ffffff; stroke-opacity: 0.8; stroke-width: 0.48"/>
    </g>
    <g clip-path="url(#pe87b634093)">
     <use xlink:href="#C0_0_fb9050bd05" x="307.947409" y="231.733532" style="fill: #2ca02c; fill-opacity: 0.8; stroke: #ffffff; stroke-opacity: 0.8; stroke-width: 0.48"/>
    </g>
    <g clip-path="url(#pe87b634093)">
     <use xlink:href="#C0_0_fb9050bd05" x="307.947409" y="231.733532" style="fill: #d62728; fill-opacity: 0.8; stroke: #ffffff; stroke-opacity: 0.8; stroke-width: 0.48"/>
    </g>
    <g clip-path="url(#pe87b634093)">
     <use xlink:href="#C0_0_fb9050bd05" x="307.947409" y="199.252583" style="fill: #9467bd; fill-opacity: 0.8; stroke: #ffffff; stroke-opacity: 0.8; stroke-width: 0.48"/>
    </g>
    <g clip-path="url(#pe87b634093)">
     <use xlink:href="#C0_0_fb9050bd05" x="307.947409" y="171.557318" style="fill: #8c564b; fill-opacity: 0.8; stroke: #ffffff; stroke-opacity: 0.8; stroke-width: 0.48"/>
    </g>
    <g clip-path="url(#pe87b634093)">
     <use xlink:href="#C0_0_fb9050bd05" x="307.947409" y="224.204124" style="fill: #e377c2; fill-opacity: 0.8; stroke: #ffffff; stroke-opacity: 0.8; stroke-width: 0.48"/>
    </g>
    <g clip-path="url(#pe87b634093)">
     <use xlink:href="#C0_0_fb9050bd05" x="307.947409" y="174.301041" style="fill: #7f7f7f; fill-opacity: 0.8; stroke: #ffffff; stroke-opacity: 0.8; stroke-width: 0.48"/>
    </g>
    <g clip-path="url(#pe87b634093)">
     <use xlink:href="#C0_0_fb9050bd05" x="307.947409" y="199.252583" style="fill: #bcbd22; fill-opacity: 0.8; stroke: #ffffff; stroke-opacity: 0.8; stroke-width: 0.48"/>
    </g>
    <g clip-path="url(#pe87b634093)">
     <use xlink:href="#C0_0_fb9050bd05" x="307.947409" y="218.714566" style="fill: #17becf; fill-opacity: 0.8; stroke: #ffffff; stroke-opacity: 0.8; stroke-width: 0.48"/>
    </g>
    <g clip-path="url(#pe87b634093)">
     <use xlink:href="#C0_0_fb9050bd05" x="384.038318" y="203.368827" style="fill: #1f77b4; fill-opacity: 0.8; stroke: #ffffff; stroke-opacity: 0.8; stroke-width: 0.48"/>
    </g>
    <g clip-path="url(#pe87b634093)">
     <use xlink:href="#C0_0_fb9050bd05" x="384.038318" y="114.827908" style="fill: #ff7f0e; fill-opacity: 0.8; stroke: #ffffff; stroke-opacity: 0.8; stroke-width: 0.48"/>
    </g>
    <g clip-path="url(#pe87b634093)">
     <use xlink:href="#C0_0_fb9050bd05" x="384.038318" y="195.36514" style="fill: #2ca02c; fill-opacity: 0.8; stroke: #ffffff; stroke-opacity: 0.8; stroke-width: 0.48"/>
    </g>
    <g clip-path="url(#pe87b634093)">
     <use xlink:href="#C0_0_fb9050bd05" x="384.038318" y="201.280434" style="fill: #d62728; fill-opacity: 0.8; stroke: #ffffff; stroke-opacity: 0.8; stroke-width: 0.48"/>
    </g>
    <g clip-path="url(#pe87b634093)">
     <use xlink:href="#C0_0_fb9050bd05" x="384.038318" y="298.26" style="fill: #9467bd; fill-opacity: 0.8; stroke: #ffffff; stroke-opacity: 0.8; stroke-width: 0.48"/>
    </g>
    <g clip-path="url(#pe87b634093)">
     <use xlink:href="#C0_0_fb9050bd05" x="384.038318" y="274.136349" style="fill: #8c564b; fill-opacity: 0.8; stroke: #ffffff; stroke-opacity: 0.8; stroke-width: 0.48"/>
    </g>
    <g clip-path="url(#pe87b634093)">
     <use xlink:href="#C0_0_fb9050bd05" x="384.038318" y="240.172179" style="fill: #e377c2; fill-opacity: 0.8; stroke: #ffffff; stroke-opacity: 0.8; stroke-width: 0.48"/>
    </g>
    <g clip-path="url(#pe87b634093)">
     <use xlink:href="#C0_0_fb9050bd05" x="384.038318" y="112.765899" style="fill: #7f7f7f; fill-opacity: 0.8; stroke: #ffffff; stroke-opacity: 0.8; stroke-width: 0.48"/>
    </g>
    <g clip-path="url(#pe87b634093)">
     <use xlink:href="#C0_0_fb9050bd05" x="384.038318" y="245.771645" style="fill: #bcbd22; fill-opacity: 0.8; stroke: #ffffff; stroke-opacity: 0.8; stroke-width: 0.48"/>
    </g>
    <g clip-path="url(#pe87b634093)">
     <use xlink:href="#C0_0_fb9050bd05" x="384.038318" y="271.280607" style="fill: #17becf; fill-opacity: 0.8; stroke: #ffffff; stroke-opacity: 0.8; stroke-width: 0.48"/>
    </g>
   </g>
   <g id="PathCollection_2"/>
   <g id="PathCollection_3"/>
   <g id="PathCollection_4"/>
   <g id="PathCollection_5"/>
   <g id="PathCollection_6"/>
   <g id="PathCollection_7"/>
   <g id="PathCollection_8"/>
   <g id="PathCollection_9"/>
   <g id="PathCollection_10"/>
   <g id="PathCollection_11"/>
   <g id="line2d_23">
    <path d="M 79.674682 101.280717 
L 155.765591 64.712887 
L 231.8565 172.915729 
L 307.947409 230.161421 
L 384.038318 203.368827 
" clip-path="url(#pe87b634093)" style="fill: none; stroke: #1f77b4; stroke-opacity: 0.8; stroke-width: 1.5; stroke-linecap: round"/>
   </g>
   <g id="line2d_24">
    <path d="M 79.674682 49.190346 
L 155.765591 57.634993 
L 231.8565 131.265133 
L 307.947409 134.753965 
L 384.038318 114.827908 
" clip-path="url(#pe87b634093)" style="fill: none; stroke: #ff7f0e; stroke-opacity: 0.8; stroke-width: 1.5; stroke-linecap: round"/>
   </g>
   <g id="line2d_25">
    <path d="M 79.674682 126.514339 
L 155.765591 109.090599 
L 231.8565 82.210427 
L 307.947409 231.733532 
L 384.038318 195.36514 
" clip-path="url(#pe87b634093)" style="fill: none; stroke: #2ca02c; stroke-opacity: 0.8; stroke-width: 1.5; stroke-linecap: round"/>
   </g>
   <g id="line2d_26">
    <path d="M 79.674682 76.972567 
L 155.765591 56.717095 
L 231.8565 161.54656 
L 307.947409 231.733532 
L 384.038318 201.280434 
" clip-path="url(#pe87b634093)" style="fill: none; stroke: #d62728; stroke-opacity: 0.8; stroke-width: 1.5; stroke-linecap: round"/>
   </g>
   <g id="line2d_27">
    <path d="M 79.674682 32.327977 
L 155.765591 81.278909 
L 231.8565 140.985617 
L 307.947409 199.252583 
L 384.038318 298.26 
" clip-path="url(#pe87b634093)" style="fill: none; stroke: #9467bd; stroke-opacity: 0.8; stroke-width: 1.5; stroke-linecap: round"/>
   </g>
   <g id="line2d_28">
    <path d="M 79.674682 83.535749 
L 231.8565 50.608421 
L 307.947409 171.557318 
L 384.038318 274.136349 
" clip-path="url(#pe87b634093)" style="fill: none; stroke: #8c564b; stroke-opacity: 0.8; stroke-width: 1.5; stroke-linecap: round"/>
   </g>
   <g id="line2d_29">
    <path d="M 79.674682 109.643613 
L 155.765591 21.06 
L 231.8565 33.533345 
L 307.947409 224.204124 
L 384.038318 240.172179 
" clip-path="url(#pe87b634093)" style="fill: none; stroke: #e377c2; stroke-opacity: 0.8; stroke-width: 1.5; stroke-linecap: round"/>
   </g>
   <g id="line2d_30">
    <path d="M 79.674682 70.495148 
L 155.765591 43.465012 
L 231.8565 95.152709 
L 307.947409 174.301041 
L 384.038318 112.765899 
" clip-path="url(#pe87b634093)" style="fill: none; stroke: #7f7f7f; stroke-opacity: 0.8; stroke-width: 1.5; stroke-linecap: round"/>
   </g>
   <g id="line2d_31">
    <path d="M 79.674682 69.706459 
L 155.765591 48.491945 
L 231.8565 96.519971 
L 307.947409 199.252583 
L 384.038318 245.771645 
" clip-path="url(#pe87b634093)" style="fill: none; stroke: #bcbd22; stroke-opacity: 0.8; stroke-width: 1.5; stroke-linecap: round"/>
   </g>
   <g id="line2d_32">
    <path d="M 79.674682 194.426119 
L 155.765591 111.329381 
L 231.8565 103.279595 
L 307.947409 218.714566 
L 384.038318 271.280607 
" clip-path="url(#pe87b634093)" style="fill: none; stroke: #17becf; stroke-opacity: 0.8; stroke-width: 1.5; stroke-linecap: round"/>
   </g>
   <g id="patch_3">
    <path d="M 64.4565 312.12 
L 64.4565 7.2 
" style="fill: none; stroke: #262626; stroke-linejoin: miter; stroke-linecap: square"/>
   </g>
   <g id="patch_4">
    <path d="M 64.4565 312.12 
L 399.2565 312.12 
" style="fill: none; stroke: #262626; stroke-linejoin: miter; stroke-linecap: square"/>
   </g>
   <g id="legend_1">
    <g id="text_10">
     <!-- Mouse ID -->
     <g style="fill: #262626" transform="translate(121.364625 200.369625) scale(0.144 -0.144)">
      <defs>
       <path id="DejaVuSans-4d" d="M 628 4666 
L 1569 4666 
L 2759 1491 
L 3956 4666 
L 4897 4666 
L 4897 0 
L 4281 0 
L 4281 4097 
L 3078 897 
L 2444 897 
L 1241 4097 
L 1241 0 
L 628 0 
L 628 4666 
z
" transform="scale(0.015625)"/>
       <path id="DejaVuSans-73" d="M 2834 3397 
L 2834 2853 
Q 2591 2978 2328 3040 
Q 2066 3103 1784 3103 
Q 1356 3103 1142 2972 
Q 928 2841 928 2578 
Q 928 2378 1081 2264 
Q 1234 2150 1697 2047 
L 1894 2003 
Q 2506 1872 2764 1633 
Q 3022 1394 3022 966 
Q 3022 478 2636 193 
Q 2250 -91 1575 -91 
Q 1294 -91 989 -36 
Q 684 19 347 128 
L 347 722 
Q 666 556 975 473 
Q 1284 391 1588 391 
Q 1994 391 2212 530 
Q 2431 669 2431 922 
Q 2431 1156 2273 1281 
Q 2116 1406 1581 1522 
L 1381 1569 
Q 847 1681 609 1914 
Q 372 2147 372 2553 
Q 372 3047 722 3315 
Q 1072 3584 1716 3584 
Q 2034 3584 2315 3537 
Q 2597 3491 2834 3397 
z
" transform="scale(0.015625)"/>
       <path id="DejaVuSans-49" d="M 628 4666 
L 1259 4666 
L 1259 0 
L 628 0 
L 628 4666 
z
" transform="scale(0.015625)"/>
      </defs>
      <use xlink:href="#DejaVuSans-4d"/>
      <use xlink:href="#DejaVuSans-6f" x="86.279297"/>
      <use xlink:href="#DejaVuSans-75" x="147.460938"/>
      <use xlink:href="#DejaVuSans-73" x="210.839844"/>
      <use xlink:href="#DejaVuSans-65" x="262.939453"/>
      <use xlink:href="#DejaVuSans-20" x="324.462891"/>
      <use xlink:href="#DejaVuSans-49" x="356.25"/>
      <use xlink:href="#DejaVuSans-44" x="385.742188"/>
     </g>
    </g>
    <g id="PathCollection_12">
     <defs>
      <path id="mbaba227781" d="M 0 3 
C 0.795609 3 1.55874 2.683901 2.12132 2.12132 
C 2.683901 1.55874 3 0.795609 3 0 
C 3 -0.795609 2.683901 -1.55874 2.12132 -2.12132 
C 1.55874 -2.683901 0.795609 -3 0 -3 
C -0.795609 -3 -1.55874 -2.683901 -2.12132 -2.12132 
C -2.683901 -1.55874 -3 -0.795609 -3 0 
C -3 0.795609 -2.683901 1.55874 -2.12132 2.12132 
C -1.55874 2.683901 -0.795609 3 0 3 
z
" style="stroke: #1f77b4; stroke-width: 0.8"/>
     </defs>
     <g>
      <use xlink:href="#mbaba227781" x="89.5365" y="216.529312" style="fill: #1f77b4; stroke: #1f77b4; stroke-width: 0.8"/>
     </g>
    </g>
    <g id="text_11">
     <!-- M31 -->
     <g style="fill: #262626" transform="translate(113.2965 219.994312) scale(0.132 -0.132)">
      <use xlink:href="#DejaVuSans-4d"/>
      <use xlink:href="#DejaVuSans-33" x="86.279297"/>
      <use xlink:href="#DejaVuSans-31" x="149.902344"/>
     </g>
    </g>
    <g id="PathCollection_13">
     <defs>
      <path id="me11d8220da" d="M 0 3 
C 0.795609 3 1.55874 2.683901 2.12132 2.12132 
C 2.683901 1.55874 3 0.795609 3 0 
C 3 -0.795609 2.683901 -1.55874 2.12132 -2.12132 
C 1.55874 -2.683901 0.795609 -3 0 -3 
C -0.795609 -3 -1.55874 -2.683901 -2.12132 -2.12132 
C -2.683901 -1.55874 -3 -0.795609 -3 0 
C -3 0.795609 -2.683901 1.55874 -2.12132 2.12132 
C -1.55874 2.683901 -0.795609 3 0 3 
z
" style="stroke: #ff7f0e; stroke-width: 0.8"/>
     </defs>
     <g>
      <use xlink:href="#me11d8220da" x="89.5365" y="235.904437" style="fill: #ff7f0e; stroke: #ff7f0e; stroke-width: 0.8"/>
     </g>
    </g>
    <g id="text_12">
     <!-- M32 -->
     <g style="fill: #262626" transform="translate(113.2965 239.369437) scale(0.132 -0.132)">
      <use xlink:href="#DejaVuSans-4d"/>
      <use xlink:href="#DejaVuSans-33" x="86.279297"/>
      <use xlink:href="#DejaVuSans-32" x="149.902344"/>
     </g>
    </g>
    <g id="PathCollection_14">
     <defs>
      <path id="m31d6287824" d="M 0 3 
C 0.795609 3 1.55874 2.683901 2.12132 2.12132 
C 2.683901 1.55874 3 0.795609 3 0 
C 3 -0.795609 2.683901 -1.55874 2.12132 -2.12132 
C 1.55874 -2.683901 0.795609 -3 0 -3 
C -0.795609 -3 -1.55874 -2.683901 -2.12132 -2.12132 
C -2.683901 -1.55874 -3 -0.795609 -3 0 
C -3 0.795609 -2.683901 1.55874 -2.12132 2.12132 
C -1.55874 2.683901 -0.795609 3 0 3 
z
" style="stroke: #2ca02c; stroke-width: 0.8"/>
     </defs>
     <g>
      <use xlink:href="#m31d6287824" x="89.5365" y="255.279562" style="fill: #2ca02c; stroke: #2ca02c; stroke-width: 0.8"/>
     </g>
    </g>
    <g id="text_13">
     <!-- M33 -->
     <g style="fill: #262626" transform="translate(113.2965 258.744562) scale(0.132 -0.132)">
      <use xlink:href="#DejaVuSans-4d"/>
      <use xlink:href="#DejaVuSans-33" x="86.279297"/>
      <use xlink:href="#DejaVuSans-33" x="149.902344"/>
     </g>
    </g>
    <g id="PathCollection_15">
     <defs>
      <path id="mcd5e6e2172" d="M 0 3 
C 0.795609 3 1.55874 2.683901 2.12132 2.12132 
C 2.683901 1.55874 3 0.795609 3 0 
C 3 -0.795609 2.683901 -1.55874 2.12132 -2.12132 
C 1.55874 -2.683901 0.795609 -3 0 -3 
C -0.795609 -3 -1.55874 -2.683901 -2.12132 -2.12132 
C -2.683901 -1.55874 -3 -0.795609 -3 0 
C -3 0.795609 -2.683901 1.55874 -2.12132 2.12132 
C -1.55874 2.683901 -0.795609 3 0 3 
z
" style="stroke: #d62728; stroke-width: 0.8"/>
     </defs>
     <g>
      <use xlink:href="#mcd5e6e2172" x="89.5365" y="274.654688" style="fill: #d62728; stroke: #d62728; stroke-width: 0.8"/>
     </g>
    </g>
    <g id="text_14">
     <!-- M34 -->
     <g style="fill: #262626" transform="translate(113.2965 278.119687) scale(0.132 -0.132)">
      <use xlink:href="#DejaVuSans-4d"/>
      <use xlink:href="#DejaVuSans-33" x="86.279297"/>
      <use xlink:href="#DejaVuSans-34" x="149.902344"/>
     </g>
    </g>
    <g id="PathCollection_16">
     <defs>
      <path id="m0481f01c4b" d="M 0 3 
C 0.795609 3 1.55874 2.683901 2.12132 2.12132 
C 2.683901 1.55874 3 0.795609 3 0 
C 3 -0.795609 2.683901 -1.55874 2.12132 -2.12132 
C 1.55874 -2.683901 0.795609 -3 0 -3 
C -0.795609 -3 -1.55874 -2.683901 -2.12132 -2.12132 
C -2.683901 -1.55874 -3 -0.795609 -3 0 
C -3 0.795609 -2.683901 1.55874 -2.12132 2.12132 
C -1.55874 2.683901 -0.795609 3 0 3 
z
" style="stroke: #9467bd; stroke-width: 0.8"/>
     </defs>
     <g>
      <use xlink:href="#m0481f01c4b" x="89.5365" y="294.029812" style="fill: #9467bd; stroke: #9467bd; stroke-width: 0.8"/>
     </g>
    </g>
    <g id="text_15">
     <!-- M35 -->
     <g style="fill: #262626" transform="translate(113.2965 297.494812) scale(0.132 -0.132)">
      <use xlink:href="#DejaVuSans-4d"/>
      <use xlink:href="#DejaVuSans-33" x="86.279297"/>
      <use xlink:href="#DejaVuSans-35" x="149.902344"/>
     </g>
    </g>
    <g id="PathCollection_17">
     <defs>
      <path id="mf7d2723271" d="M 0 3 
C 0.795609 3 1.55874 2.683901 2.12132 2.12132 
C 2.683901 1.55874 3 0.795609 3 0 
C 3 -0.795609 2.683901 -1.55874 2.12132 -2.12132 
C 1.55874 -2.683901 0.795609 -3 0 -3 
C -0.795609 -3 -1.55874 -2.683901 -2.12132 -2.12132 
C -2.683901 -1.55874 -3 -0.795609 -3 0 
C -3 0.795609 -2.683901 1.55874 -2.12132 2.12132 
C -1.55874 2.683901 -0.795609 3 0 3 
z
" style="stroke: #8c564b; stroke-width: 0.8"/>
     </defs>
     <g>
      <use xlink:href="#mf7d2723271" x="181.082625" y="216.529312" style="fill: #8c564b; stroke: #8c564b; stroke-width: 0.8"/>
     </g>
    </g>
    <g id="text_16">
     <!-- M36 -->
     <g style="fill: #262626" transform="translate(204.842625 219.994312) scale(0.132 -0.132)">
      <use xlink:href="#DejaVuSans-4d"/>
      <use xlink:href="#DejaVuSans-33" x="86.279297"/>
      <use xlink:href="#DejaVuSans-36" x="149.902344"/>
     </g>
    </g>
    <g id="PathCollection_18">
     <defs>
      <path id="m787f5d706c" d="M 0 3 
C 0.795609 3 1.55874 2.683901 2.12132 2.12132 
C 2.683901 1.55874 3 0.795609 3 0 
C 3 -0.795609 2.683901 -1.55874 2.12132 -2.12132 
C 1.55874 -2.683901 0.795609 -3 0 -3 
C -0.795609 -3 -1.55874 -2.683901 -2.12132 -2.12132 
C -2.683901 -1.55874 -3 -0.795609 -3 0 
C -3 0.795609 -2.683901 1.55874 -2.12132 2.12132 
C -1.55874 2.683901 -0.795609 3 0 3 
z
" style="stroke: #e377c2; stroke-width: 0.8"/>
     </defs>
     <g>
      <use xlink:href="#m787f5d706c" x="181.082625" y="235.904437" style="fill: #e377c2; stroke: #e377c2; stroke-width: 0.8"/>
     </g>
    </g>
    <g id="text_17">
     <!-- M37 -->
     <g style="fill: #262626" transform="translate(204.842625 239.369437) scale(0.132 -0.132)">
      <defs>
       <path id="DejaVuSans-37" d="M 525 4666 
L 3525 4666 
L 3525 4397 
L 1831 0 
L 1172 0 
L 2766 4134 
L 525 4134 
L 525 4666 
z
" transform="scale(0.015625)"/>
      </defs>
      <use xlink:href="#DejaVuSans-4d"/>
      <use xlink:href="#DejaVuSans-33" x="86.279297"/>
      <use xlink:href="#DejaVuSans-37" x="149.902344"/>
     </g>
    </g>
    <g id="PathCollection_19">
     <defs>
      <path id="m92337573a7" d="M 0 3 
C 0.795609 3 1.55874 2.683901 2.12132 2.12132 
C 2.683901 1.55874 3 0.795609 3 0 
C 3 -0.795609 2.683901 -1.55874 2.12132 -2.12132 
C 1.55874 -2.683901 0.795609 -3 0 -3 
C -0.795609 -3 -1.55874 -2.683901 -2.12132 -2.12132 
C -2.683901 -1.55874 -3 -0.795609 -3 0 
C -3 0.795609 -2.683901 1.55874 -2.12132 2.12132 
C -1.55874 2.683901 -0.795609 3 0 3 
z
" style="stroke: #7f7f7f; stroke-width: 0.8"/>
     </defs>
     <g>
      <use xlink:href="#m92337573a7" x="181.082625" y="255.279562" style="fill: #7f7f7f; stroke: #7f7f7f; stroke-width: 0.8"/>
     </g>
    </g>
    <g id="text_18">
     <!-- M38 -->
     <g style="fill: #262626" transform="translate(204.842625 258.744562) scale(0.132 -0.132)">
      <defs>
       <path id="DejaVuSans-38" d="M 2034 2216 
Q 1584 2216 1326 1975 
Q 1069 1734 1069 1313 
Q 1069 891 1326 650 
Q 1584 409 2034 409 
Q 2484 409 2743 651 
Q 3003 894 3003 1313 
Q 3003 1734 2745 1975 
Q 2488 2216 2034 2216 
z
M 1403 2484 
Q 997 2584 770 2862 
Q 544 3141 544 3541 
Q 544 4100 942 4425 
Q 1341 4750 2034 4750 
Q 2731 4750 3128 4425 
Q 3525 4100 3525 3541 
Q 3525 3141 3298 2862 
Q 3072 2584 2669 2484 
Q 3125 2378 3379 2068 
Q 3634 1759 3634 1313 
Q 3634 634 3220 271 
Q 2806 -91 2034 -91 
Q 1263 -91 848 271 
Q 434 634 434 1313 
Q 434 1759 690 2068 
Q 947 2378 1403 2484 
z
M 1172 3481 
Q 1172 3119 1398 2916 
Q 1625 2713 2034 2713 
Q 2441 2713 2670 2916 
Q 2900 3119 2900 3481 
Q 2900 3844 2670 4047 
Q 2441 4250 2034 4250 
Q 1625 4250 1398 4047 
Q 1172 3844 1172 3481 
z
" transform="scale(0.015625)"/>
      </defs>
      <use xlink:href="#DejaVuSans-4d"/>
      <use xlink:href="#DejaVuSans-33" x="86.279297"/>
      <use xlink:href="#DejaVuSans-38" x="149.902344"/>
     </g>
    </g>
    <g id="PathCollection_20">
     <defs>
      <path id="m039fefa7a5" d="M 0 3 
C 0.795609 3 1.55874 2.683901 2.12132 2.12132 
C 2.683901 1.55874 3 0.795609 3 0 
C 3 -0.795609 2.683901 -1.55874 2.12132 -2.12132 
C 1.55874 -2.683901 0.795609 -3 0 -3 
C -0.795609 -3 -1.55874 -2.683901 -2.12132 -2.12132 
C -2.683901 -1.55874 -3 -0.795609 -3 0 
C -3 0.795609 -2.683901 1.55874 -2.12132 2.12132 
C -1.55874 2.683901 -0.795609 3 0 3 
z
" style="stroke: #bcbd22; stroke-width: 0.8"/>
     </defs>
     <g>
      <use xlink:href="#m039fefa7a5" x="181.082625" y="274.654688" style="fill: #bcbd22; stroke: #bcbd22; stroke-width: 0.8"/>
     </g>
    </g>
    <g id="text_19">
     <!-- M39 -->
     <g style="fill: #262626" transform="translate(204.842625 278.119687) scale(0.132 -0.132)">
      <use xlink:href="#DejaVuSans-4d"/>
      <use xlink:href="#DejaVuSans-33" x="86.279297"/>
      <use xlink:href="#DejaVuSans-39" x="149.902344"/>
     </g>
    </g>
    <g id="PathCollection_21">
     <defs>
      <path id="m2b4faaf761" d="M 0 3 
C 0.795609 3 1.55874 2.683901 2.12132 2.12132 
C 2.683901 1.55874 3 0.795609 3 0 
C 3 -0.795609 2.683901 -1.55874 2.12132 -2.12132 
C 1.55874 -2.683901 0.795609 -3 0 -3 
C -0.795609 -3 -1.55874 -2.683901 -2.12132 -2.12132 
C -2.683901 -1.55874 -3 -0.795609 -3 0 
C -3 0.795609 -2.683901 1.55874 -2.12132 2.12132 
C -1.55874 2.683901 -0.795609 3 0 3 
z
" style="stroke: #17becf; stroke-width: 0.8"/>
     </defs>
     <g>
      <use xlink:href="#m2b4faaf761" x="181.082625" y="294.029812" style="fill: #17becf; stroke: #17becf; stroke-width: 0.8"/>
     </g>
    </g>
    <g id="text_20">
     <!-- M40 -->
     <g style="fill: #262626" transform="translate(204.842625 297.494812) scale(0.132 -0.132)">
      <use xlink:href="#DejaVuSans-4d"/>
      <use xlink:href="#DejaVuSans-34" x="86.279297"/>
      <use xlink:href="#DejaVuSans-30" x="149.902344"/>
     </g>
    </g>
   </g>
  </g>
 </g>
 <defs>
  <clipPath id="pe87b634093">
   <rect x="64.4565" y="7.2" width="334.8" height="304.92"/>
  </clipPath>
 </defs>
</svg>
