<?xml version="1.0" encoding="utf-8" standalone="no"?>
<!DOCTYPE svg PUBLIC "-//W3C//DTD SVG 1.1//EN"
  "http://www.w3.org/Graphics/SVG/1.1/DTD/svg11.dtd">
<svg xmlns:xlink="http://www.w3.org/1999/xlink" width="304.379pt" height="233.74775pt" viewBox="0 0 304.379 233.74775" xmlns="http://www.w3.org/2000/svg" version="1.1">
 <metadata>
  <rdf:RDF xmlns:dc="http://purl.org/dc/elements/1.1/" xmlns:cc="http://creativecommons.org/ns#" xmlns:rdf="http://www.w3.org/1999/02/22-rdf-syntax-ns#">
   <cc:Work>
    <dc:type rdf:resource="http://purl.org/dc/dcmitype/StillImage"/>
    <dc:date>2024-05-15T16:40:00.923143</dc:date>
    <dc:format>image/svg+xml</dc:format>
    <dc:creator>
     <cc:Agent>
      <dc:title>Matplotlib v3.7.1, https://matplotlib.org/</dc:title>
     </cc:Agent>
    </dc:creator>
   </cc:Work>
  </rdf:RDF>
 </metadata>
 <defs>
  <style type="text/css">*{stroke-linejoin: round; stroke-linecap: butt}</style>
 </defs>
 <g id="figure_1">
  <g id="patch_1">
   <path d="M 0 233.74775 
L 304.379 233.74775 
L 304.379 0 
L 0 0 
z
" style="fill: #ffffff"/>
  </g>
  <g id="axes_1">
   <g id="patch_2">
    <path d="M 46.079 201.24 
L 297.179 201.24 
L 297.179 7.2 
L 46.079 7.2 
z
" style="fill: #ffffff"/>
   </g>
   <g id="matplotlib.axis_1">
    <g id="xtick_1">
     <g id="line2d_1"/>
     <g id="text_1">
      <!-- D4 -->
      <g style="fill: #262626" transform="translate(50.778511 211.426625) scale(0.088 -0.088)">
       <defs>
        <path id="DejaVuSans-Bold-44" d="M 1791 3756 
L 1791 909 
L 2222 909 
Q 2959 909 3348 1275 
Q 3738 1641 3738 2338 
Q 3738 3031 3350 3393 
Q 2963 3756 2222 3756 
L 1791 3756 
z
M 588 4666 
L 1856 4666 
Q 2919 4666 3439 4514 
Q 3959 4363 4331 4000 
Q 4659 3684 4818 3271 
Q 4978 2859 4978 2338 
Q 4978 1809 4818 1395 
Q 4659 981 4331 666 
Q 3956 303 3431 151 
Q 2906 0 1856 0 
L 588 0 
L 588 4666 
z
" transform="scale(0.015625)"/>
        <path id="DejaVuSans-Bold-34" d="M 2356 3675 
L 1038 1722 
L 2356 1722 
L 2356 3675 
z
M 2156 4666 
L 3494 4666 
L 3494 1722 
L 4159 1722 
L 4159 850 
L 3494 850 
L 3494 0 
L 2356 0 
L 2356 850 
L 288 850 
L 288 1881 
L 2156 4666 
z
" transform="scale(0.015625)"/>
       </defs>
       <use xlink:href="#DejaVuSans-Bold-44"/>
       <use xlink:href="#DejaVuSans-Bold-34" x="83.007812"/>
      </g>
     </g>
    </g>
    <g id="xtick_2">
     <g id="line2d_2"/>
     <g id="text_2">
      <!-- D5 -->
      <g style="fill: #262626" transform="translate(107.846693 211.426625) scale(0.088 -0.088)">
       <defs>
        <path id="DejaVuSans-Bold-35" d="M 678 4666 
L 3669 4666 
L 3669 3781 
L 1638 3781 
L 1638 3059 
Q 1775 3097 1914 3117 
Q 2053 3138 2203 3138 
Q 3056 3138 3531 2711 
Q 4006 2284 4006 1522 
Q 4006 766 3489 337 
Q 2972 -91 2053 -91 
Q 1656 -91 1267 -14 
Q 878 63 494 219 
L 494 1166 
Q 875 947 1217 837 
Q 1559 728 1863 728 
Q 2300 728 2551 942 
Q 2803 1156 2803 1522 
Q 2803 1891 2551 2103 
Q 2300 2316 1863 2316 
Q 1603 2316 1309 2248 
Q 1016 2181 678 2041 
L 678 4666 
z
" transform="scale(0.015625)"/>
       </defs>
       <use xlink:href="#DejaVuSans-Bold-44"/>
       <use xlink:href="#DejaVuSans-Bold-35" x="83.007812"/>
      </g>
     </g>
    </g>
    <g id="xtick_3">
     <g id="line2d_3"/>
     <g id="text_3">
      <!-- D6 -->
      <g style="fill: #262626" transform="translate(164.914875 211.426625) scale(0.088 -0.088)">
       <defs>
        <path id="DejaVuSans-Bold-36" d="M 2316 2303 
Q 2000 2303 1842 2098 
Q 1684 1894 1684 1484 
Q 1684 1075 1842 870 
Q 2000 666 2316 666 
Q 2634 666 2792 870 
Q 2950 1075 2950 1484 
Q 2950 1894 2792 2098 
Q 2634 2303 2316 2303 
z
M 3803 4544 
L 3803 3681 
Q 3506 3822 3243 3889 
Q 2981 3956 2731 3956 
Q 2194 3956 1894 3657 
Q 1594 3359 1544 2772 
Q 1750 2925 1990 3001 
Q 2231 3078 2516 3078 
Q 3231 3078 3670 2659 
Q 4109 2241 4109 1563 
Q 4109 813 3618 361 
Q 3128 -91 2303 -91 
Q 1394 -91 895 523 
Q 397 1138 397 2266 
Q 397 3422 980 4083 
Q 1563 4744 2578 4744 
Q 2900 4744 3203 4694 
Q 3506 4644 3803 4544 
z
" transform="scale(0.015625)"/>
       </defs>
       <use xlink:href="#DejaVuSans-Bold-44"/>
       <use xlink:href="#DejaVuSans-Bold-36" x="83.007812"/>
      </g>
     </g>
    </g>
    <g id="xtick_4">
     <g id="line2d_4"/>
     <g id="text_4">
      <!-- D9 -->
      <g style="fill: #262626" transform="translate(221.983057 211.426625) scale(0.088 -0.088)">
       <defs>
        <path id="DejaVuSans-Bold-39" d="M 641 103 
L 641 966 
Q 928 831 1190 764 
Q 1453 697 1709 697 
Q 2247 697 2547 995 
Q 2847 1294 2900 1881 
Q 2688 1725 2447 1647 
Q 2206 1569 1925 1569 
Q 1209 1569 770 1986 
Q 331 2403 331 3084 
Q 331 3838 820 4291 
Q 1309 4744 2131 4744 
Q 3044 4744 3544 4128 
Q 4044 3513 4044 2388 
Q 4044 1231 3459 570 
Q 2875 -91 1856 -91 
Q 1528 -91 1228 -42 
Q 928 6 641 103 
z
M 2125 2350 
Q 2441 2350 2600 2554 
Q 2759 2759 2759 3169 
Q 2759 3575 2600 3781 
Q 2441 3988 2125 3988 
Q 1809 3988 1650 3781 
Q 1491 3575 1491 3169 
Q 1491 2759 1650 2554 
Q 1809 2350 2125 2350 
z
" transform="scale(0.015625)"/>
       </defs>
       <use xlink:href="#DejaVuSans-Bold-44"/>
       <use xlink:href="#DejaVuSans-Bold-39" x="83.007812"/>
      </g>
     </g>
    </g>
    <g id="xtick_5">
     <g id="line2d_5"/>
     <g id="text_5">
      <!-- D12 -->
      <g style="fill: #262626" transform="translate(275.989801 211.426625) scale(0.088 -0.088)">
       <defs>
        <path id="DejaVuSans-Bold-31" d="M 750 831 
L 1813 831 
L 1813 3847 
L 722 3622 
L 722 4441 
L 1806 4666 
L 2950 4666 
L 2950 831 
L 4013 831 
L 4013 0 
L 750 0 
L 750 831 
z
" transform="scale(0.015625)"/>
        <path id="DejaVuSans-Bold-32" d="M 1844 884 
L 3897 884 
L 3897 0 
L 506 0 
L 506 884 
L 2209 2388 
Q 2438 2594 2547 2791 
Q 2656 2988 2656 3200 
Q 2656 3528 2436 3728 
Q 2216 3928 1850 3928 
Q 1569 3928 1234 3808 
Q 900 3688 519 3450 
L 519 4475 
Q 925 4609 1322 4679 
Q 1719 4750 2100 4750 
Q 2938 4750 3402 4381 
Q 3866 4013 3866 3353 
Q 3866 2972 3669 2642 
Q 3472 2313 2841 1759 
L 1844 884 
z
" transform="scale(0.015625)"/>
       </defs>
       <use xlink:href="#DejaVuSans-Bold-44"/>
       <use xlink:href="#DejaVuSans-Bold-31" x="83.007812"/>
       <use xlink:href="#DejaVuSans-Bold-32" x="152.587891"/>
      </g>
     </g>
    </g>
    <g id="text_6">
     <!-- Timepoint -->
     <g style="fill: #262626" transform="translate(144.36125 224.55125) scale(0.096 -0.096)">
      <defs>
       <path id="DejaVuSans-Bold-54" d="M 31 4666 
L 4331 4666 
L 4331 3756 
L 2784 3756 
L 2784 0 
L 1581 0 
L 1581 3756 
L 31 3756 
L 31 4666 
z
" transform="scale(0.015625)"/>
       <path id="DejaVuSans-Bold-69" d="M 538 3500 
L 1656 3500 
L 1656 0 
L 538 0 
L 538 3500 
z
M 538 4863 
L 1656 4863 
L 1656 3950 
L 538 3950 
L 538 4863 
z
" transform="scale(0.015625)"/>
       <path id="DejaVuSans-Bold-6d" d="M 3781 2919 
Q 3994 3244 4286 3414 
Q 4578 3584 4928 3584 
Q 5531 3584 5847 3212 
Q 6163 2841 6163 2131 
L 6163 0 
L 5038 0 
L 5038 1825 
Q 5041 1866 5042 1909 
Q 5044 1953 5044 2034 
Q 5044 2406 4934 2573 
Q 4825 2741 4581 2741 
Q 4263 2741 4089 2478 
Q 3916 2216 3909 1719 
L 3909 0 
L 2784 0 
L 2784 1825 
Q 2784 2406 2684 2573 
Q 2584 2741 2328 2741 
Q 2006 2741 1831 2477 
Q 1656 2213 1656 1722 
L 1656 0 
L 531 0 
L 531 3500 
L 1656 3500 
L 1656 2988 
Q 1863 3284 2130 3434 
Q 2397 3584 2719 3584 
Q 3081 3584 3359 3409 
Q 3638 3234 3781 2919 
z
" transform="scale(0.015625)"/>
       <path id="DejaVuSans-Bold-65" d="M 4031 1759 
L 4031 1441 
L 1416 1441 
Q 1456 1047 1700 850 
Q 1944 653 2381 653 
Q 2734 653 3104 758 
Q 3475 863 3866 1075 
L 3866 213 
Q 3469 63 3072 -14 
Q 2675 -91 2278 -91 
Q 1328 -91 801 392 
Q 275 875 275 1747 
Q 275 2603 792 3093 
Q 1309 3584 2216 3584 
Q 3041 3584 3536 3087 
Q 4031 2591 4031 1759 
z
M 2881 2131 
Q 2881 2450 2695 2645 
Q 2509 2841 2209 2841 
Q 1884 2841 1681 2658 
Q 1478 2475 1428 2131 
L 2881 2131 
z
" transform="scale(0.015625)"/>
       <path id="DejaVuSans-Bold-70" d="M 1656 506 
L 1656 -1331 
L 538 -1331 
L 538 3500 
L 1656 3500 
L 1656 2988 
Q 1888 3294 2169 3439 
Q 2450 3584 2816 3584 
Q 3463 3584 3878 3070 
Q 4294 2556 4294 1747 
Q 4294 938 3878 423 
Q 3463 -91 2816 -91 
Q 2450 -91 2169 54 
Q 1888 200 1656 506 
z
M 2400 2772 
Q 2041 2772 1848 2508 
Q 1656 2244 1656 1747 
Q 1656 1250 1848 986 
Q 2041 722 2400 722 
Q 2759 722 2948 984 
Q 3138 1247 3138 1747 
Q 3138 2247 2948 2509 
Q 2759 2772 2400 2772 
z
" transform="scale(0.015625)"/>
       <path id="DejaVuSans-Bold-6f" d="M 2203 2784 
Q 1831 2784 1636 2517 
Q 1441 2250 1441 1747 
Q 1441 1244 1636 976 
Q 1831 709 2203 709 
Q 2569 709 2762 976 
Q 2956 1244 2956 1747 
Q 2956 2250 2762 2517 
Q 2569 2784 2203 2784 
z
M 2203 3584 
Q 3106 3584 3614 3096 
Q 4122 2609 4122 1747 
Q 4122 884 3614 396 
Q 3106 -91 2203 -91 
Q 1297 -91 786 396 
Q 275 884 275 1747 
Q 275 2609 786 3096 
Q 1297 3584 2203 3584 
z
" transform="scale(0.015625)"/>
       <path id="DejaVuSans-Bold-6e" d="M 4056 2131 
L 4056 0 
L 2931 0 
L 2931 347 
L 2931 1631 
Q 2931 2084 2911 2256 
Q 2891 2428 2841 2509 
Q 2775 2619 2662 2680 
Q 2550 2741 2406 2741 
Q 2056 2741 1856 2470 
Q 1656 2200 1656 1722 
L 1656 0 
L 538 0 
L 538 3500 
L 1656 3500 
L 1656 2988 
Q 1909 3294 2193 3439 
Q 2478 3584 2822 3584 
Q 3428 3584 3742 3212 
Q 4056 2841 4056 2131 
z
" transform="scale(0.015625)"/>
       <path id="DejaVuSans-Bold-74" d="M 1759 4494 
L 1759 3500 
L 2913 3500 
L 2913 2700 
L 1759 2700 
L 1759 1216 
Q 1759 972 1856 886 
Q 1953 800 2241 800 
L 2816 800 
L 2816 0 
L 1856 0 
Q 1194 0 917 276 
Q 641 553 641 1216 
L 641 2700 
L 84 2700 
L 84 3500 
L 641 3500 
L 641 4494 
L 1759 4494 
z
" transform="scale(0.015625)"/>
      </defs>
      <use xlink:href="#DejaVuSans-Bold-54"/>
      <use xlink:href="#DejaVuSans-Bold-69" x="68.212891"/>
      <use xlink:href="#DejaVuSans-Bold-6d" x="102.490234"/>
      <use xlink:href="#DejaVuSans-Bold-65" x="206.689453"/>
      <use xlink:href="#DejaVuSans-Bold-70" x="274.511719"/>
      <use xlink:href="#DejaVuSans-Bold-6f" x="346.09375"/>
      <use xlink:href="#DejaVuSans-Bold-69" x="414.794922"/>
      <use xlink:href="#DejaVuSans-Bold-6e" x="449.072266"/>
      <use xlink:href="#DejaVuSans-Bold-74" x="520.263672"/>
     </g>
    </g>
   </g>
   <g id="matplotlib.axis_2">
    <g id="ytick_1">
     <g id="line2d_6">
      <defs>
       <path id="m33dd715e5e" d="M 0 0 
L 4 0 
" style="stroke: #262626"/>
      </defs>
      <g>
       <use xlink:href="#m33dd715e5e" x="46.079" y="175.253076" style="fill: #262626; stroke: #262626"/>
      </g>
     </g>
     <g id="text_7">
      <!-- $\mathdefault{10^{-3}}$ -->
      <g style="fill: #262626" transform="translate(20.491 178.596389) scale(0.088 -0.088)">
       <defs>
        <path id="DejaVuSans-Bold-30" d="M 2944 2338 
Q 2944 3213 2780 3570 
Q 2616 3928 2228 3928 
Q 1841 3928 1675 3570 
Q 1509 3213 1509 2338 
Q 1509 1453 1675 1090 
Q 1841 728 2228 728 
Q 2613 728 2778 1090 
Q 2944 1453 2944 2338 
z
M 4147 2328 
Q 4147 1169 3647 539 
Q 3147 -91 2228 -91 
Q 1306 -91 806 539 
Q 306 1169 306 2328 
Q 306 3491 806 4120 
Q 1306 4750 2228 4750 
Q 3147 4750 3647 4120 
Q 4147 3491 4147 2328 
z
" transform="scale(0.015625)"/>
        <path id="DejaVuSans-Bold-2212" d="M 678 2375 
L 4684 2375 
L 4684 1638 
L 678 1638 
L 678 2375 
z
" transform="scale(0.015625)"/>
        <path id="DejaVuSans-Bold-33" d="M 2981 2516 
Q 3453 2394 3698 2092 
Q 3944 1791 3944 1325 
Q 3944 631 3412 270 
Q 2881 -91 1863 -91 
Q 1503 -91 1142 -33 
Q 781 25 428 141 
L 428 1069 
Q 766 900 1098 814 
Q 1431 728 1753 728 
Q 2231 728 2486 893 
Q 2741 1059 2741 1369 
Q 2741 1688 2480 1852 
Q 2219 2016 1709 2016 
L 1228 2016 
L 1228 2791 
L 1734 2791 
Q 2188 2791 2409 2933 
Q 2631 3075 2631 3366 
Q 2631 3634 2415 3781 
Q 2200 3928 1806 3928 
Q 1516 3928 1219 3862 
Q 922 3797 628 3669 
L 628 4550 
Q 984 4650 1334 4700 
Q 1684 4750 2022 4750 
Q 2931 4750 3382 4451 
Q 3834 4153 3834 3553 
Q 3834 3144 3618 2883 
Q 3403 2622 2981 2516 
z
" transform="scale(0.015625)"/>
       </defs>
       <use xlink:href="#DejaVuSans-Bold-31" transform="translate(0 0.765625)"/>
       <use xlink:href="#DejaVuSans-Bold-30" transform="translate(69.580078 0.765625)"/>
       <use xlink:href="#DejaVuSans-Bold-2212" transform="translate(140.117188 39.046875) scale(0.7)"/>
       <use xlink:href="#DejaVuSans-Bold-33" transform="translate(198.769531 39.046875) scale(0.7)"/>
      </g>
     </g>
    </g>
    <g id="ytick_2">
     <g id="line2d_7">
      <g>
       <use xlink:href="#m33dd715e5e" x="46.079" y="72.747894" style="fill: #262626; stroke: #262626"/>
      </g>
     </g>
     <g id="text_8">
      <!-- $\mathdefault{10^{-2}}$ -->
      <g style="fill: #262626" transform="translate(20.491 76.091206) scale(0.088 -0.088)">
       <use xlink:href="#DejaVuSans-Bold-31" transform="translate(0 0.765625)"/>
       <use xlink:href="#DejaVuSans-Bold-30" transform="translate(69.580078 0.765625)"/>
       <use xlink:href="#DejaVuSans-Bold-2212" transform="translate(140.117188 39.046875) scale(0.7)"/>
       <use xlink:href="#DejaVuSans-Bold-32" transform="translate(198.769531 39.046875) scale(0.7)"/>
      </g>
     </g>
    </g>
    <g id="ytick_3">
     <g id="line2d_8">
      <defs>
       <path id="m5d78ae727f" d="M 0 0 
L 2 0 
" style="stroke: #262626"/>
      </defs>
      <g>
       <use xlink:href="#m5d78ae727f" x="46.079" y="197.993723" style="fill: #262626; stroke: #262626"/>
      </g>
     </g>
    </g>
    <g id="ytick_4">
     <g id="line2d_9">
      <g>
       <use xlink:href="#m5d78ae727f" x="46.079" y="191.13133" style="fill: #262626; stroke: #262626"/>
      </g>
     </g>
    </g>
    <g id="ytick_5">
     <g id="line2d_10">
      <g>
       <use xlink:href="#m5d78ae727f" x="46.079" y="185.186855" style="fill: #262626; stroke: #262626"/>
      </g>
     </g>
    </g>
    <g id="ytick_6">
     <g id="line2d_11">
      <g>
       <use xlink:href="#m5d78ae727f" x="46.079" y="179.943456" style="fill: #262626; stroke: #262626"/>
      </g>
     </g>
    </g>
    <g id="ytick_7">
     <g id="line2d_12">
      <g>
       <use xlink:href="#m5d78ae727f" x="46.079" y="144.395942" style="fill: #262626; stroke: #262626"/>
      </g>
     </g>
    </g>
    <g id="ytick_8">
     <g id="line2d_13">
      <g>
       <use xlink:href="#m5d78ae727f" x="46.079" y="126.345675" style="fill: #262626; stroke: #262626"/>
      </g>
     </g>
    </g>
    <g id="ytick_9">
     <g id="line2d_14">
      <g>
       <use xlink:href="#m5d78ae727f" x="46.079" y="113.538807" style="fill: #262626; stroke: #262626"/>
      </g>
     </g>
    </g>
    <g id="ytick_10">
     <g id="line2d_15">
      <g>
       <use xlink:href="#m5d78ae727f" x="46.079" y="103.605028" style="fill: #262626; stroke: #262626"/>
      </g>
     </g>
    </g>
    <g id="ytick_11">
     <g id="line2d_16">
      <g>
       <use xlink:href="#m5d78ae727f" x="46.079" y="95.48854" style="fill: #262626; stroke: #262626"/>
      </g>
     </g>
    </g>
    <g id="ytick_12">
     <g id="line2d_17">
      <g>
       <use xlink:href="#m5d78ae727f" x="46.079" y="88.626147" style="fill: #262626; stroke: #262626"/>
      </g>
     </g>
    </g>
    <g id="ytick_13">
     <g id="line2d_18">
      <g>
       <use xlink:href="#m5d78ae727f" x="46.079" y="82.681672" style="fill: #262626; stroke: #262626"/>
      </g>
     </g>
    </g>
    <g id="ytick_14">
     <g id="line2d_19">
      <g>
       <use xlink:href="#m5d78ae727f" x="46.079" y="77.438274" style="fill: #262626; stroke: #262626"/>
      </g>
     </g>
    </g>
    <g id="ytick_15">
     <g id="line2d_20">
      <g>
       <use xlink:href="#m5d78ae727f" x="46.079" y="41.890759" style="fill: #262626; stroke: #262626"/>
      </g>
     </g>
    </g>
    <g id="ytick_16">
     <g id="line2d_21">
      <g>
       <use xlink:href="#m5d78ae727f" x="46.079" y="23.840492" style="fill: #262626; stroke: #262626"/>
      </g>
     </g>
    </g>
    <g id="ytick_17">
     <g id="line2d_22">
      <g>
       <use xlink:href="#m5d78ae727f" x="46.079" y="11.033624" style="fill: #262626; stroke: #262626"/>
      </g>
     </g>
    </g>
    <g id="text_9">
     <!-- E. coli relative abundance -->
     <g style="fill: #262626" transform="translate(14.4945 174.30375) rotate(-90) scale(0.096 -0.096)">
      <defs>
       <path id="DejaVuSans-Bold-45" d="M 588 4666 
L 3834 4666 
L 3834 3756 
L 1791 3756 
L 1791 2888 
L 3713 2888 
L 3713 1978 
L 1791 1978 
L 1791 909 
L 3903 909 
L 3903 0 
L 588 0 
L 588 4666 
z
" transform="scale(0.015625)"/>
       <path id="DejaVuSans-Bold-2e" d="M 653 1209 
L 1778 1209 
L 1778 0 
L 653 0 
L 653 1209 
z
" transform="scale(0.015625)"/>
       <path id="DejaVuSans-Bold-20" transform="scale(0.015625)"/>
       <path id="DejaVuSans-Bold-63" d="M 3366 3391 
L 3366 2478 
Q 3138 2634 2908 2709 
Q 2678 2784 2431 2784 
Q 1963 2784 1702 2511 
Q 1441 2238 1441 1747 
Q 1441 1256 1702 982 
Q 1963 709 2431 709 
Q 2694 709 2930 787 
Q 3166 866 3366 1019 
L 3366 103 
Q 3103 6 2833 -42 
Q 2563 -91 2291 -91 
Q 1344 -91 809 395 
Q 275 881 275 1747 
Q 275 2613 809 3098 
Q 1344 3584 2291 3584 
Q 2566 3584 2833 3536 
Q 3100 3488 3366 3391 
z
" transform="scale(0.015625)"/>
       <path id="DejaVuSans-Bold-6c" d="M 538 4863 
L 1656 4863 
L 1656 0 
L 538 0 
L 538 4863 
z
" transform="scale(0.015625)"/>
       <path id="DejaVuSans-Bold-72" d="M 3138 2547 
Q 2991 2616 2845 2648 
Q 2700 2681 2553 2681 
Q 2122 2681 1889 2404 
Q 1656 2128 1656 1613 
L 1656 0 
L 538 0 
L 538 3500 
L 1656 3500 
L 1656 2925 
Q 1872 3269 2151 3426 
Q 2431 3584 2822 3584 
Q 2878 3584 2943 3579 
Q 3009 3575 3134 3559 
L 3138 2547 
z
" transform="scale(0.015625)"/>
       <path id="DejaVuSans-Bold-61" d="M 2106 1575 
Q 1756 1575 1579 1456 
Q 1403 1338 1403 1106 
Q 1403 894 1545 773 
Q 1688 653 1941 653 
Q 2256 653 2472 879 
Q 2688 1106 2688 1447 
L 2688 1575 
L 2106 1575 
z
M 3816 1997 
L 3816 0 
L 2688 0 
L 2688 519 
Q 2463 200 2181 54 
Q 1900 -91 1497 -91 
Q 953 -91 614 226 
Q 275 544 275 1050 
Q 275 1666 698 1953 
Q 1122 2241 2028 2241 
L 2688 2241 
L 2688 2328 
Q 2688 2594 2478 2717 
Q 2269 2841 1825 2841 
Q 1466 2841 1156 2769 
Q 847 2697 581 2553 
L 581 3406 
Q 941 3494 1303 3539 
Q 1666 3584 2028 3584 
Q 2975 3584 3395 3211 
Q 3816 2838 3816 1997 
z
" transform="scale(0.015625)"/>
       <path id="DejaVuSans-Bold-76" d="M 97 3500 
L 1216 3500 
L 2088 1081 
L 2956 3500 
L 4078 3500 
L 2700 0 
L 1472 0 
L 97 3500 
z
" transform="scale(0.015625)"/>
       <path id="DejaVuSans-Bold-62" d="M 2400 722 
Q 2759 722 2948 984 
Q 3138 1247 3138 1747 
Q 3138 2247 2948 2509 
Q 2759 2772 2400 2772 
Q 2041 2772 1848 2508 
Q 1656 2244 1656 1747 
Q 1656 1250 1848 986 
Q 2041 722 2400 722 
z
M 1656 2988 
Q 1888 3294 2169 3439 
Q 2450 3584 2816 3584 
Q 3463 3584 3878 3070 
Q 4294 2556 4294 1747 
Q 4294 938 3878 423 
Q 3463 -91 2816 -91 
Q 2450 -91 2169 54 
Q 1888 200 1656 506 
L 1656 0 
L 538 0 
L 538 4863 
L 1656 4863 
L 1656 2988 
z
" transform="scale(0.015625)"/>
       <path id="DejaVuSans-Bold-75" d="M 500 1363 
L 500 3500 
L 1625 3500 
L 1625 3150 
Q 1625 2866 1622 2436 
Q 1619 2006 1619 1863 
Q 1619 1441 1641 1255 
Q 1663 1069 1716 984 
Q 1784 875 1895 815 
Q 2006 756 2150 756 
Q 2500 756 2700 1025 
Q 2900 1294 2900 1772 
L 2900 3500 
L 4019 3500 
L 4019 0 
L 2900 0 
L 2900 506 
Q 2647 200 2364 54 
Q 2081 -91 1741 -91 
Q 1134 -91 817 281 
Q 500 653 500 1363 
z
" transform="scale(0.015625)"/>
       <path id="DejaVuSans-Bold-64" d="M 2919 2988 
L 2919 4863 
L 4044 4863 
L 4044 0 
L 2919 0 
L 2919 506 
Q 2688 197 2409 53 
Q 2131 -91 1766 -91 
Q 1119 -91 703 423 
Q 288 938 288 1747 
Q 288 2556 703 3070 
Q 1119 3584 1766 3584 
Q 2128 3584 2408 3439 
Q 2688 3294 2919 2988 
z
M 2181 722 
Q 2541 722 2730 984 
Q 2919 1247 2919 1747 
Q 2919 2247 2730 2509 
Q 2541 2772 2181 2772 
Q 1825 2772 1636 2509 
Q 1447 2247 1447 1747 
Q 1447 1247 1636 984 
Q 1825 722 2181 722 
z
" transform="scale(0.015625)"/>
      </defs>
      <use xlink:href="#DejaVuSans-Bold-45"/>
      <use xlink:href="#DejaVuSans-Bold-2e" x="68.310547"/>
      <use xlink:href="#DejaVuSans-Bold-20" x="106.298828"/>
      <use xlink:href="#DejaVuSans-Bold-63" x="141.113281"/>
      <use xlink:href="#DejaVuSans-Bold-6f" x="200.390625"/>
      <use xlink:href="#DejaVuSans-Bold-6c" x="269.091797"/>
      <use xlink:href="#DejaVuSans-Bold-69" x="303.369141"/>
      <use xlink:href="#DejaVuSans-Bold-20" x="337.646484"/>
      <use xlink:href="#DejaVuSans-Bold-72" x="372.460938"/>
      <use xlink:href="#DejaVuSans-Bold-65" x="421.777344"/>
      <use xlink:href="#DejaVuSans-Bold-6c" x="489.599609"/>
      <use xlink:href="#DejaVuSans-Bold-61" x="523.876953"/>
      <use xlink:href="#DejaVuSans-Bold-74" x="591.357422"/>
      <use xlink:href="#DejaVuSans-Bold-69" x="639.160156"/>
      <use xlink:href="#DejaVuSans-Bold-76" x="673.4375"/>
      <use xlink:href="#DejaVuSans-Bold-65" x="738.623047"/>
      <use xlink:href="#DejaVuSans-Bold-20" x="806.445312"/>
      <use xlink:href="#DejaVuSans-Bold-61" x="841.259766"/>
      <use xlink:href="#DejaVuSans-Bold-62" x="908.740234"/>
      <use xlink:href="#DejaVuSans-Bold-75" x="980.322266"/>
      <use xlink:href="#DejaVuSans-Bold-6e" x="1051.513672"/>
      <use xlink:href="#DejaVuSans-Bold-64" x="1122.705078"/>
      <use xlink:href="#DejaVuSans-Bold-61" x="1194.287109"/>
      <use xlink:href="#DejaVuSans-Bold-6e" x="1261.767578"/>
      <use xlink:href="#DejaVuSans-Bold-63" x="1332.958984"/>
      <use xlink:href="#DejaVuSans-Bold-65" x="1392.236328"/>
     </g>
    </g>
   </g>
   <g id="PolyCollection_1"/>
   <g id="PolyCollection_2"/>
   <g id="PolyCollection_3"/>
   <g id="PolyCollection_4"/>
   <g id="PolyCollection_5"/>
   <g id="PolyCollection_6"/>
   <g id="PolyCollection_7"/>
   <g id="PolyCollection_8"/>
   <g id="PolyCollection_9"/>
   <g id="PolyCollection_10"/>
   <g id="PathCollection_1">
    <defs>
     <path id="C0_0_45c73c6aa9" d="M 0 3 
C 0.795609 3 1.55874 2.683901 2.12132 2.12132 
C 2.683901 1.55874 3 0.795609 3 -0 
C 3 -0.795609 2.683901 -1.55874 2.12132 -2.12132 
C 1.55874 -2.683901 0.795609 -3 0 -3 
C -0.795609 -3 -1.55874 -2.683901 -2.12132 -2.12132 
C -2.683901 -1.55874 -3 -0.795609 -3 0 
C -3 0.795609 -2.683901 1.55874 -2.12132 2.12132 
C -1.55874 2.683901 -0.795609 3 0 3 
z
"/>
    </defs>
    <g clip-path="url(#p0813162ae7)">
     <use xlink:href="#C0_0_45c73c6aa9" x="57.492636" y="67.069547" style="fill: #4c72b0; fill-opacity: 0.8; stroke: #ffffff; stroke-opacity: 0.8; stroke-width: 0.48"/>
    </g>
    <g clip-path="url(#p0813162ae7)">
     <use xlink:href="#C0_0_45c73c6aa9" x="57.492636" y="33.921129" style="fill: #dd8452; fill-opacity: 0.8; stroke: #ffffff; stroke-opacity: 0.8; stroke-width: 0.48"/>
    </g>
    <g clip-path="url(#p0813162ae7)">
     <use xlink:href="#C0_0_45c73c6aa9" x="57.492636" y="83.127307" style="fill: #55a868; fill-opacity: 0.8; stroke: #ffffff; stroke-opacity: 0.8; stroke-width: 0.48"/>
    </g>
    <g clip-path="url(#p0813162ae7)">
     <use xlink:href="#C0_0_45c73c6aa9" x="57.492636" y="51.600724" style="fill: #c44e52; fill-opacity: 0.8; stroke: #ffffff; stroke-opacity: 0.8; stroke-width: 0.48"/>
    </g>
    <g clip-path="url(#p0813162ae7)">
     <use xlink:href="#C0_0_45c73c6aa9" x="57.492636" y="23.190531" style="fill: #8172b3; fill-opacity: 0.8; stroke: #ffffff; stroke-opacity: 0.8; stroke-width: 0.48"/>
    </g>
    <g clip-path="url(#p0813162ae7)">
     <use xlink:href="#C0_0_45c73c6aa9" x="57.492636" y="55.777295" style="fill: #937860; fill-opacity: 0.8; stroke: #ffffff; stroke-opacity: 0.8; stroke-width: 0.48"/>
    </g>
    <g clip-path="url(#p0813162ae7)">
     <use xlink:href="#C0_0_45c73c6aa9" x="57.492636" y="72.39139" style="fill: #da8bc3; fill-opacity: 0.8; stroke: #ffffff; stroke-opacity: 0.8; stroke-width: 0.48"/>
    </g>
    <g clip-path="url(#p0813162ae7)">
     <use xlink:href="#C0_0_45c73c6aa9" x="57.492636" y="47.478731" style="fill: #8c8c8c; fill-opacity: 0.8; stroke: #ffffff; stroke-opacity: 0.8; stroke-width: 0.48"/>
    </g>
    <g clip-path="url(#p0813162ae7)">
     <use xlink:href="#C0_0_45c73c6aa9" x="57.492636" y="46.976838" style="fill: #ccb974; fill-opacity: 0.8; stroke: #ffffff; stroke-opacity: 0.8; stroke-width: 0.48"/>
    </g>
    <g clip-path="url(#p0813162ae7)">
     <use xlink:href="#C0_0_45c73c6aa9" x="57.492636" y="126.343894" style="fill: #64b5cd; fill-opacity: 0.8; stroke: #ffffff; stroke-opacity: 0.8; stroke-width: 0.48"/>
    </g>
    <g clip-path="url(#p0813162ae7)">
     <use xlink:href="#C0_0_45c73c6aa9" x="114.560818" y="43.79911" style="fill: #4c72b0; fill-opacity: 0.8; stroke: #ffffff; stroke-opacity: 0.8; stroke-width: 0.48"/>
    </g>
    <g clip-path="url(#p0813162ae7)">
     <use xlink:href="#C0_0_45c73c6aa9" x="114.560818" y="39.294996" style="fill: #dd8452; fill-opacity: 0.8; stroke: #ffffff; stroke-opacity: 0.8; stroke-width: 0.48"/>
    </g>
    <g clip-path="url(#p0813162ae7)">
     <use xlink:href="#C0_0_45c73c6aa9" x="114.560818" y="72.039472" style="fill: #55a868; fill-opacity: 0.8; stroke: #ffffff; stroke-opacity: 0.8; stroke-width: 0.48"/>
    </g>
    <g clip-path="url(#p0813162ae7)">
     <use xlink:href="#C0_0_45c73c6aa9" x="114.560818" y="38.710879" style="fill: #c44e52; fill-opacity: 0.8; stroke: #ffffff; stroke-opacity: 0.8; stroke-width: 0.48"/>
    </g>
    <g clip-path="url(#p0813162ae7)">
     <use xlink:href="#C0_0_45c73c6aa9" x="114.560818" y="54.341124" style="fill: #8172b3; fill-opacity: 0.8; stroke: #ffffff; stroke-opacity: 0.8; stroke-width: 0.48"/>
    </g>
    <g clip-path="url(#p0813162ae7)">
     <use xlink:href="#C0_0_45c73c6aa9" x="114.560818" y="16.02" style="fill: #da8bc3; fill-opacity: 0.8; stroke: #ffffff; stroke-opacity: 0.8; stroke-width: 0.48"/>
    </g>
    <g clip-path="url(#p0813162ae7)">
     <use xlink:href="#C0_0_45c73c6aa9" x="114.560818" y="30.277735" style="fill: #8c8c8c; fill-opacity: 0.8; stroke: #ffffff; stroke-opacity: 0.8; stroke-width: 0.48"/>
    </g>
    <g clip-path="url(#p0813162ae7)">
     <use xlink:href="#C0_0_45c73c6aa9" x="114.560818" y="33.476692" style="fill: #ccb974; fill-opacity: 0.8; stroke: #ffffff; stroke-opacity: 0.8; stroke-width: 0.48"/>
    </g>
    <g clip-path="url(#p0813162ae7)">
     <use xlink:href="#C0_0_45c73c6aa9" x="114.560818" y="73.464152" style="fill: #64b5cd; fill-opacity: 0.8; stroke: #ffffff; stroke-opacity: 0.8; stroke-width: 0.48"/>
    </g>
    <g clip-path="url(#p0813162ae7)">
     <use xlink:href="#C0_0_45c73c6aa9" x="171.629" y="112.655464" style="fill: #4c72b0; fill-opacity: 0.8; stroke: #ffffff; stroke-opacity: 0.8; stroke-width: 0.48"/>
    </g>
    <g clip-path="url(#p0813162ae7)">
     <use xlink:href="#C0_0_45c73c6aa9" x="171.629" y="86.150539" style="fill: #dd8452; fill-opacity: 0.8; stroke: #ffffff; stroke-opacity: 0.8; stroke-width: 0.48"/>
    </g>
    <g clip-path="url(#p0813162ae7)">
     <use xlink:href="#C0_0_45c73c6aa9" x="171.629" y="54.933908" style="fill: #55a868; fill-opacity: 0.8; stroke: #ffffff; stroke-opacity: 0.8; stroke-width: 0.48"/>
    </g>
    <g clip-path="url(#p0813162ae7)">
     <use xlink:href="#C0_0_45c73c6aa9" x="171.629" y="105.420538" style="fill: #c44e52; fill-opacity: 0.8; stroke: #ffffff; stroke-opacity: 0.8; stroke-width: 0.48"/>
    </g>
    <g clip-path="url(#p0813162ae7)">
     <use xlink:href="#C0_0_45c73c6aa9" x="171.629" y="92.336302" style="fill: #8172b3; fill-opacity: 0.8; stroke: #ffffff; stroke-opacity: 0.8; stroke-width: 0.48"/>
    </g>
    <g clip-path="url(#p0813162ae7)">
     <use xlink:href="#C0_0_45c73c6aa9" x="171.629" y="34.823541" style="fill: #937860; fill-opacity: 0.8; stroke: #ffffff; stroke-opacity: 0.8; stroke-width: 0.48"/>
    </g>
    <g clip-path="url(#p0813162ae7)">
     <use xlink:href="#C0_0_45c73c6aa9" x="171.629" y="23.957583" style="fill: #da8bc3; fill-opacity: 0.8; stroke: #ffffff; stroke-opacity: 0.8; stroke-width: 0.48"/>
    </g>
    <g clip-path="url(#p0813162ae7)">
     <use xlink:href="#C0_0_45c73c6aa9" x="171.629" y="63.169906" style="fill: #8c8c8c; fill-opacity: 0.8; stroke: #ffffff; stroke-opacity: 0.8; stroke-width: 0.48"/>
    </g>
    <g clip-path="url(#p0813162ae7)">
     <use xlink:href="#C0_0_45c73c6aa9" x="171.629" y="64.039981" style="fill: #ccb974; fill-opacity: 0.8; stroke: #ffffff; stroke-opacity: 0.8; stroke-width: 0.48"/>
    </g>
    <g clip-path="url(#p0813162ae7)">
     <use xlink:href="#C0_0_45c73c6aa9" x="171.629" y="68.34156" style="fill: #64b5cd; fill-opacity: 0.8; stroke: #ffffff; stroke-opacity: 0.8; stroke-width: 0.48"/>
    </g>
    <g clip-path="url(#p0813162ae7)">
     <use xlink:href="#C0_0_45c73c6aa9" x="228.697182" y="149.084541" style="fill: #4c72b0; fill-opacity: 0.8; stroke: #ffffff; stroke-opacity: 0.8; stroke-width: 0.48"/>
    </g>
    <g clip-path="url(#p0813162ae7)">
     <use xlink:href="#C0_0_45c73c6aa9" x="228.697182" y="88.370705" style="fill: #dd8452; fill-opacity: 0.8; stroke: #ffffff; stroke-opacity: 0.8; stroke-width: 0.48"/>
    </g>
    <g clip-path="url(#p0813162ae7)">
     <use xlink:href="#C0_0_45c73c6aa9" x="228.697182" y="150.084975" style="fill: #55a868; fill-opacity: 0.8; stroke: #ffffff; stroke-opacity: 0.8; stroke-width: 0.48"/>
    </g>
    <g clip-path="url(#p0813162ae7)">
     <use xlink:href="#C0_0_45c73c6aa9" x="228.697182" y="150.084975" style="fill: #c44e52; fill-opacity: 0.8; stroke: #ffffff; stroke-opacity: 0.8; stroke-width: 0.48"/>
    </g>
    <g clip-path="url(#p0813162ae7)">
     <use xlink:href="#C0_0_45c73c6aa9" x="228.697182" y="129.41528" style="fill: #8172b3; fill-opacity: 0.8; stroke: #ffffff; stroke-opacity: 0.8; stroke-width: 0.48"/>
    </g>
    <g clip-path="url(#p0813162ae7)">
     <use xlink:href="#C0_0_45c73c6aa9" x="228.697182" y="111.791021" style="fill: #937860; fill-opacity: 0.8; stroke: #ffffff; stroke-opacity: 0.8; stroke-width: 0.48"/>
    </g>
    <g clip-path="url(#p0813162ae7)">
     <use xlink:href="#C0_0_45c73c6aa9" x="228.697182" y="145.293534" style="fill: #da8bc3; fill-opacity: 0.8; stroke: #ffffff; stroke-opacity: 0.8; stroke-width: 0.48"/>
    </g>
    <g clip-path="url(#p0813162ae7)">
     <use xlink:href="#C0_0_45c73c6aa9" x="228.697182" y="113.537026" style="fill: #8c8c8c; fill-opacity: 0.8; stroke: #ffffff; stroke-opacity: 0.8; stroke-width: 0.48"/>
    </g>
    <g clip-path="url(#p0813162ae7)">
     <use xlink:href="#C0_0_45c73c6aa9" x="228.697182" y="129.41528" style="fill: #ccb974; fill-opacity: 0.8; stroke: #ffffff; stroke-opacity: 0.8; stroke-width: 0.48"/>
    </g>
    <g clip-path="url(#p0813162ae7)">
     <use xlink:href="#C0_0_45c73c6aa9" x="228.697182" y="141.800178" style="fill: #64b5cd; fill-opacity: 0.8; stroke: #ffffff; stroke-opacity: 0.8; stroke-width: 0.48"/>
    </g>
    <g clip-path="url(#p0813162ae7)">
     <use xlink:href="#C0_0_45c73c6aa9" x="285.765364" y="132.034708" style="fill: #4c72b0; fill-opacity: 0.8; stroke: #ffffff; stroke-opacity: 0.8; stroke-width: 0.48"/>
    </g>
    <g clip-path="url(#p0813162ae7)">
     <use xlink:href="#C0_0_45c73c6aa9" x="285.765364" y="75.690487" style="fill: #dd8452; fill-opacity: 0.8; stroke: #ffffff; stroke-opacity: 0.8; stroke-width: 0.48"/>
    </g>
    <g clip-path="url(#p0813162ae7)">
     <use xlink:href="#C0_0_45c73c6aa9" x="285.765364" y="126.941453" style="fill: #55a868; fill-opacity: 0.8; stroke: #ffffff; stroke-opacity: 0.8; stroke-width: 0.48"/>
    </g>
    <g clip-path="url(#p0813162ae7)">
     <use xlink:href="#C0_0_45c73c6aa9" x="285.765364" y="130.705731" style="fill: #c44e52; fill-opacity: 0.8; stroke: #ffffff; stroke-opacity: 0.8; stroke-width: 0.48"/>
    </g>
    <g clip-path="url(#p0813162ae7)">
     <use xlink:href="#C0_0_45c73c6aa9" x="285.765364" y="192.42" style="fill: #8172b3; fill-opacity: 0.8; stroke: #ffffff; stroke-opacity: 0.8; stroke-width: 0.48"/>
    </g>
    <g clip-path="url(#p0813162ae7)">
     <use xlink:href="#C0_0_45c73c6aa9" x="285.765364" y="177.068586" style="fill: #937860; fill-opacity: 0.8; stroke: #ffffff; stroke-opacity: 0.8; stroke-width: 0.48"/>
    </g>
    <g clip-path="url(#p0813162ae7)">
     <use xlink:href="#C0_0_45c73c6aa9" x="285.765364" y="155.455023" style="fill: #da8bc3; fill-opacity: 0.8; stroke: #ffffff; stroke-opacity: 0.8; stroke-width: 0.48"/>
    </g>
    <g clip-path="url(#p0813162ae7)">
     <use xlink:href="#C0_0_45c73c6aa9" x="285.765364" y="74.378299" style="fill: #8c8c8c; fill-opacity: 0.8; stroke: #ffffff; stroke-opacity: 0.8; stroke-width: 0.48"/>
    </g>
    <g clip-path="url(#p0813162ae7)">
     <use xlink:href="#C0_0_45c73c6aa9" x="285.765364" y="159.018319" style="fill: #ccb974; fill-opacity: 0.8; stroke: #ffffff; stroke-opacity: 0.8; stroke-width: 0.48"/>
    </g>
    <g clip-path="url(#p0813162ae7)">
     <use xlink:href="#C0_0_45c73c6aa9" x="285.765364" y="175.251296" style="fill: #64b5cd; fill-opacity: 0.8; stroke: #ffffff; stroke-opacity: 0.8; stroke-width: 0.48"/>
    </g>
   </g>
   <g id="PathCollection_2"/>
   <g id="PathCollection_3"/>
   <g id="PathCollection_4"/>
   <g id="PathCollection_5"/>
   <g id="PathCollection_6"/>
   <g id="PathCollection_7"/>
   <g id="PathCollection_8"/>
   <g id="PathCollection_9"/>
   <g id="PathCollection_10"/>
   <g id="PathCollection_11"/>
   <g id="line2d_23">
    <path d="M 57.492636 67.069547 
L 114.560818 43.79911 
L 171.629 112.655464 
L 228.697182 149.084541 
L 285.765364 132.034708 
" clip-path="url(#p0813162ae7)" style="fill: none; stroke: #4c72b0; stroke-opacity: 0.8; stroke-width: 1.5; stroke-linecap: round"/>
   </g>
   <g id="line2d_24">
    <path d="M 57.492636 33.921129 
L 114.560818 39.294996 
L 171.629 86.150539 
L 228.697182 88.370705 
L 285.765364 75.690487 
" clip-path="url(#p0813162ae7)" style="fill: none; stroke: #dd8452; stroke-opacity: 0.8; stroke-width: 1.5; stroke-linecap: round"/>
   </g>
   <g id="line2d_25">
    <path d="M 57.492636 83.127307 
L 114.560818 72.039472 
L 171.629 54.933908 
L 228.697182 150.084975 
L 285.765364 126.941453 
" clip-path="url(#p0813162ae7)" style="fill: none; stroke: #55a868; stroke-opacity: 0.8; stroke-width: 1.5; stroke-linecap: round"/>
   </g>
   <g id="line2d_26">
    <path d="M 57.492636 51.600724 
L 114.560818 38.710879 
L 171.629 105.420538 
L 228.697182 150.084975 
L 285.765364 130.705731 
" clip-path="url(#p0813162ae7)" style="fill: none; stroke: #c44e52; stroke-opacity: 0.8; stroke-width: 1.5; stroke-linecap: round"/>
   </g>
   <g id="line2d_27">
    <path d="M 57.492636 23.190531 
L 114.560818 54.341124 
L 171.629 92.336302 
L 228.697182 129.41528 
L 285.765364 192.42 
" clip-path="url(#p0813162ae7)" style="fill: none; stroke: #8172b3; stroke-opacity: 0.8; stroke-width: 1.5; stroke-linecap: round"/>
   </g>
   <g id="line2d_28">
    <path d="M 57.492636 55.777295 
L 171.629 34.823541 
L 228.697182 111.791021 
L 285.765364 177.068586 
" clip-path="url(#p0813162ae7)" style="fill: none; stroke: #937860; stroke-opacity: 0.8; stroke-width: 1.5; stroke-linecap: round"/>
   </g>
   <g id="line2d_29">
    <path d="M 57.492636 72.39139 
L 114.560818 16.02 
L 171.629 23.957583 
L 228.697182 145.293534 
L 285.765364 155.455023 
" clip-path="url(#p0813162ae7)" style="fill: none; stroke: #da8bc3; stroke-opacity: 0.8; stroke-width: 1.5; stroke-linecap: round"/>
   </g>
   <g id="line2d_30">
    <path d="M 57.492636 47.478731 
L 114.560818 30.277735 
L 171.629 63.169906 
L 228.697182 113.537026 
L 285.765364 74.378299 
" clip-path="url(#p0813162ae7)" style="fill: none; stroke: #8c8c8c; stroke-opacity: 0.8; stroke-width: 1.5; stroke-linecap: round"/>
   </g>
   <g id="line2d_31">
    <path d="M 57.492636 46.976838 
L 114.560818 33.476692 
L 171.629 64.039981 
L 228.697182 129.41528 
L 285.765364 159.018319 
" clip-path="url(#p0813162ae7)" style="fill: none; stroke: #ccb974; stroke-opacity: 0.8; stroke-width: 1.5; stroke-linecap: round"/>
   </g>
   <g id="line2d_32">
    <path d="M 57.492636 126.343894 
L 114.560818 73.464152 
L 171.629 68.34156 
L 228.697182 141.800178 
L 285.765364 175.251296 
" clip-path="url(#p0813162ae7)" style="fill: none; stroke: #64b5cd; stroke-opacity: 0.8; stroke-width: 1.5; stroke-linecap: round"/>
   </g>
   <g id="patch_3">
    <path d="M 46.079 201.24 
L 46.079 7.2 
" style="fill: none; stroke: #262626; stroke-linejoin: miter; stroke-linecap: square"/>
   </g>
   <g id="patch_4">
    <path d="M 297.179 201.24 
L 297.179 7.2 
" style="fill: none; stroke: #262626; stroke-linejoin: miter; stroke-linecap: square"/>
   </g>
   <g id="patch_5">
    <path d="M 46.079 201.24 
L 297.179 201.24 
" style="fill: none; stroke: #262626; stroke-linejoin: miter; stroke-linecap: square"/>
   </g>
   <g id="patch_6">
    <path d="M 46.079 7.2 
L 297.179 7.2 
" style="fill: none; stroke: #262626; stroke-linejoin: miter; stroke-linecap: square"/>
   </g>
   <g id="legend_1">
    <g id="text_10">
     <!-- Mouse ID -->
     <g style="fill: #262626" transform="translate(83.396625 126.73975) scale(0.096 -0.096)">
      <defs>
       <path id="DejaVuSans-Bold-4d" d="M 588 4666 
L 2119 4666 
L 3181 2169 
L 4250 4666 
L 5778 4666 
L 5778 0 
L 4641 0 
L 4641 3413 
L 3566 897 
L 2803 897 
L 1728 3413 
L 1728 0 
L 588 0 
L 588 4666 
z
" transform="scale(0.015625)"/>
       <path id="DejaVuSans-Bold-73" d="M 3272 3391 
L 3272 2541 
Q 2913 2691 2578 2766 
Q 2244 2841 1947 2841 
Q 1628 2841 1473 2761 
Q 1319 2681 1319 2516 
Q 1319 2381 1436 2309 
Q 1553 2238 1856 2203 
L 2053 2175 
Q 2913 2066 3209 1816 
Q 3506 1566 3506 1031 
Q 3506 472 3093 190 
Q 2681 -91 1863 -91 
Q 1516 -91 1145 -36 
Q 775 19 384 128 
L 384 978 
Q 719 816 1070 734 
Q 1422 653 1784 653 
Q 2113 653 2278 743 
Q 2444 834 2444 1013 
Q 2444 1163 2330 1236 
Q 2216 1309 1875 1350 
L 1678 1375 
Q 931 1469 631 1722 
Q 331 1975 331 2491 
Q 331 3047 712 3315 
Q 1094 3584 1881 3584 
Q 2191 3584 2531 3537 
Q 2872 3491 3272 3391 
z
" transform="scale(0.015625)"/>
       <path id="DejaVuSans-Bold-49" d="M 588 4666 
L 1791 4666 
L 1791 0 
L 588 0 
L 588 4666 
z
" transform="scale(0.015625)"/>
      </defs>
      <use xlink:href="#DejaVuSans-Bold-4d"/>
      <use xlink:href="#DejaVuSans-Bold-6f" x="99.511719"/>
      <use xlink:href="#DejaVuSans-Bold-75" x="168.212891"/>
      <use xlink:href="#DejaVuSans-Bold-73" x="239.404297"/>
      <use xlink:href="#DejaVuSans-Bold-65" x="298.925781"/>
      <use xlink:href="#DejaVuSans-Bold-20" x="366.748047"/>
      <use xlink:href="#DejaVuSans-Bold-49" x="401.5625"/>
      <use xlink:href="#DejaVuSans-Bold-44" x="438.769531"/>
     </g>
    </g>
    <g id="PathCollection_12">
     <defs>
      <path id="m3a5bb9fccc" d="M 0 3 
C 0.795609 3 1.55874 2.683901 2.12132 2.12132 
C 2.683901 1.55874 3 0.795609 3 0 
C 3 -0.795609 2.683901 -1.55874 2.12132 -2.12132 
C 1.55874 -2.683901 0.795609 -3 0 -3 
C -0.795609 -3 -1.55874 -2.683901 -2.12132 -2.12132 
C -2.683901 -1.55874 -3 -0.795609 -3 0 
C -3 0.795609 -2.683901 1.55874 -2.12132 2.12132 
C -1.55874 2.683901 -0.795609 3 0 3 
z
" style="stroke: #4c72b0; stroke-width: 0.8"/>
     </defs>
     <g>
      <use xlink:href="#m3a5bb9fccc" x="62.799" y="137.512875" style="fill: #4c72b0; stroke: #4c72b0; stroke-width: 0.8"/>
     </g>
    </g>
    <g id="text_11">
     <!-- M31 -->
     <g style="fill: #262626" transform="translate(78.639 139.822875) scale(0.088 -0.088)">
      <use xlink:href="#DejaVuSans-Bold-4d"/>
      <use xlink:href="#DejaVuSans-Bold-33" x="99.511719"/>
      <use xlink:href="#DejaVuSans-Bold-31" x="169.091797"/>
     </g>
    </g>
    <g id="PathCollection_13">
     <defs>
      <path id="m8ef06f56ce" d="M 0 3 
C 0.795609 3 1.55874 2.683901 2.12132 2.12132 
C 2.683901 1.55874 3 0.795609 3 0 
C 3 -0.795609 2.683901 -1.55874 2.12132 -2.12132 
C 1.55874 -2.683901 0.795609 -3 0 -3 
C -0.795609 -3 -1.55874 -2.683901 -2.12132 -2.12132 
C -2.683901 -1.55874 -3 -0.795609 -3 0 
C -3 0.795609 -2.683901 1.55874 -2.12132 2.12132 
C -1.55874 2.683901 -0.795609 3 0 3 
z
" style="stroke: #dd8452; stroke-width: 0.8"/>
     </defs>
     <g>
      <use xlink:href="#m8ef06f56ce" x="62.799" y="150.429625" style="fill: #dd8452; stroke: #dd8452; stroke-width: 0.8"/>
     </g>
    </g>
    <g id="text_12">
     <!-- M32 -->
     <g style="fill: #262626" transform="translate(78.639 152.739625) scale(0.088 -0.088)">
      <use xlink:href="#DejaVuSans-Bold-4d"/>
      <use xlink:href="#DejaVuSans-Bold-33" x="99.511719"/>
      <use xlink:href="#DejaVuSans-Bold-32" x="169.091797"/>
     </g>
    </g>
    <g id="PathCollection_14">
     <defs>
      <path id="m33cc31bcbe" d="M 0 3 
C 0.795609 3 1.55874 2.683901 2.12132 2.12132 
C 2.683901 1.55874 3 0.795609 3 0 
C 3 -0.795609 2.683901 -1.55874 2.12132 -2.12132 
C 1.55874 -2.683901 0.795609 -3 0 -3 
C -0.795609 -3 -1.55874 -2.683901 -2.12132 -2.12132 
C -2.683901 -1.55874 -3 -0.795609 -3 0 
C -3 0.795609 -2.683901 1.55874 -2.12132 2.12132 
C -1.55874 2.683901 -0.795609 3 0 3 
z
" style="stroke: #55a868; stroke-width: 0.8"/>
     </defs>
     <g>
      <use xlink:href="#m33cc31bcbe" x="62.799" y="163.346375" style="fill: #55a868; stroke: #55a868; stroke-width: 0.8"/>
     </g>
    </g>
    <g id="text_13">
     <!-- M33 -->
     <g style="fill: #262626" transform="translate(78.639 165.656375) scale(0.088 -0.088)">
      <use xlink:href="#DejaVuSans-Bold-4d"/>
      <use xlink:href="#DejaVuSans-Bold-33" x="99.511719"/>
      <use xlink:href="#DejaVuSans-Bold-33" x="169.091797"/>
     </g>
    </g>
    <g id="PathCollection_15">
     <defs>
      <path id="me5986a0104" d="M 0 3 
C 0.795609 3 1.55874 2.683901 2.12132 2.12132 
C 2.683901 1.55874 3 0.795609 3 0 
C 3 -0.795609 2.683901 -1.55874 2.12132 -2.12132 
C 1.55874 -2.683901 0.795609 -3 0 -3 
C -0.795609 -3 -1.55874 -2.683901 -2.12132 -2.12132 
C -2.683901 -1.55874 -3 -0.795609 -3 0 
C -3 0.795609 -2.683901 1.55874 -2.12132 2.12132 
C -1.55874 2.683901 -0.795609 3 0 3 
z
" style="stroke: #c44e52; stroke-width: 0.8"/>
     </defs>
     <g>
      <use xlink:href="#me5986a0104" x="62.799" y="176.263125" style="fill: #c44e52; stroke: #c44e52; stroke-width: 0.8"/>
     </g>
    </g>
    <g id="text_14">
     <!-- M34 -->
     <g style="fill: #262626" transform="translate(78.639 178.573125) scale(0.088 -0.088)">
      <use xlink:href="#DejaVuSans-Bold-4d"/>
      <use xlink:href="#DejaVuSans-Bold-33" x="99.511719"/>
      <use xlink:href="#DejaVuSans-Bold-34" x="169.091797"/>
     </g>
    </g>
    <g id="PathCollection_16">
     <defs>
      <path id="mf2a25c1408" d="M 0 3 
C 0.795609 3 1.55874 2.683901 2.12132 2.12132 
C 2.683901 1.55874 3 0.795609 3 0 
C 3 -0.795609 2.683901 -1.55874 2.12132 -2.12132 
C 1.55874 -2.683901 0.795609 -3 0 -3 
C -0.795609 -3 -1.55874 -2.683901 -2.12132 -2.12132 
C -2.683901 -1.55874 -3 -0.795609 -3 0 
C -3 0.795609 -2.683901 1.55874 -2.12132 2.12132 
C -1.55874 2.683901 -0.795609 3 0 3 
z
" style="stroke: #8172b3; stroke-width: 0.8"/>
     </defs>
     <g>
      <use xlink:href="#mf2a25c1408" x="62.799" y="189.179875" style="fill: #8172b3; stroke: #8172b3; stroke-width: 0.8"/>
     </g>
    </g>
    <g id="text_15">
     <!-- M35 -->
     <g style="fill: #262626" transform="translate(78.639 191.489875) scale(0.088 -0.088)">
      <use xlink:href="#DejaVuSans-Bold-4d"/>
      <use xlink:href="#DejaVuSans-Bold-33" x="99.511719"/>
      <use xlink:href="#DejaVuSans-Bold-35" x="169.091797"/>
     </g>
    </g>
    <g id="PathCollection_17">
     <defs>
      <path id="m1f3c6e8756" d="M 0 3 
C 0.795609 3 1.55874 2.683901 2.12132 2.12132 
C 2.683901 1.55874 3 0.795609 3 0 
C 3 -0.795609 2.683901 -1.55874 2.12132 -2.12132 
C 1.55874 -2.683901 0.795609 -3 0 -3 
C -0.795609 -3 -1.55874 -2.683901 -2.12132 -2.12132 
C -2.683901 -1.55874 -3 -0.795609 -3 0 
C -3 0.795609 -2.683901 1.55874 -2.12132 2.12132 
C -1.55874 2.683901 -0.795609 3 0 3 
z
" style="stroke: #937860; stroke-width: 0.8"/>
     </defs>
     <g>
      <use xlink:href="#m1f3c6e8756" x="126.042125" y="137.512875" style="fill: #937860; stroke: #937860; stroke-width: 0.8"/>
     </g>
    </g>
    <g id="text_16">
     <!-- M36 -->
     <g style="fill: #262626" transform="translate(141.882125 139.822875) scale(0.088 -0.088)">
      <use xlink:href="#DejaVuSans-Bold-4d"/>
      <use xlink:href="#DejaVuSans-Bold-33" x="99.511719"/>
      <use xlink:href="#DejaVuSans-Bold-36" x="169.091797"/>
     </g>
    </g>
    <g id="PathCollection_18">
     <defs>
      <path id="m5f31e9fb99" d="M 0 3 
C 0.795609 3 1.55874 2.683901 2.12132 2.12132 
C 2.683901 1.55874 3 0.795609 3 0 
C 3 -0.795609 2.683901 -1.55874 2.12132 -2.12132 
C 1.55874 -2.683901 0.795609 -3 0 -3 
C -0.795609 -3 -1.55874 -2.683901 -2.12132 -2.12132 
C -2.683901 -1.55874 -3 -0.795609 -3 0 
C -3 0.795609 -2.683901 1.55874 -2.12132 2.12132 
C -1.55874 2.683901 -0.795609 3 0 3 
z
" style="stroke: #da8bc3; stroke-width: 0.8"/>
     </defs>
     <g>
      <use xlink:href="#m5f31e9fb99" x="126.042125" y="150.429625" style="fill: #da8bc3; stroke: #da8bc3; stroke-width: 0.8"/>
     </g>
    </g>
    <g id="text_17">
     <!-- M37 -->
     <g style="fill: #262626" transform="translate(141.882125 152.739625) scale(0.088 -0.088)">
      <defs>
       <path id="DejaVuSans-Bold-37" d="M 428 4666 
L 3944 4666 
L 3944 3988 
L 2125 0 
L 953 0 
L 2675 3781 
L 428 3781 
L 428 4666 
z
" transform="scale(0.015625)"/>
      </defs>
      <use xlink:href="#DejaVuSans-Bold-4d"/>
      <use xlink:href="#DejaVuSans-Bold-33" x="99.511719"/>
      <use xlink:href="#DejaVuSans-Bold-37" x="169.091797"/>
     </g>
    </g>
    <g id="PathCollection_19">
     <defs>
      <path id="m59af0f70a4" d="M 0 3 
C 0.795609 3 1.55874 2.683901 2.12132 2.12132 
C 2.683901 1.55874 3 0.795609 3 0 
C 3 -0.795609 2.683901 -1.55874 2.12132 -2.12132 
C 1.55874 -2.683901 0.795609 -3 0 -3 
C -0.795609 -3 -1.55874 -2.683901 -2.12132 -2.12132 
C -2.683901 -1.55874 -3 -0.795609 -3 0 
C -3 0.795609 -2.683901 1.55874 -2.12132 2.12132 
C -1.55874 2.683901 -0.795609 3 0 3 
z
" style="stroke: #8c8c8c; stroke-width: 0.8"/>
     </defs>
     <g>
      <use xlink:href="#m59af0f70a4" x="126.042125" y="163.346375" style="fill: #8c8c8c; stroke: #8c8c8c; stroke-width: 0.8"/>
     </g>
    </g>
    <g id="text_18">
     <!-- M38 -->
     <g style="fill: #262626" transform="translate(141.882125 165.656375) scale(0.088 -0.088)">
      <defs>
       <path id="DejaVuSans-Bold-38" d="M 2228 2088 
Q 1891 2088 1709 1903 
Q 1528 1719 1528 1375 
Q 1528 1031 1709 848 
Q 1891 666 2228 666 
Q 2563 666 2741 848 
Q 2919 1031 2919 1375 
Q 2919 1722 2741 1905 
Q 2563 2088 2228 2088 
z
M 1350 2484 
Q 925 2613 709 2878 
Q 494 3144 494 3541 
Q 494 4131 934 4440 
Q 1375 4750 2228 4750 
Q 3075 4750 3515 4442 
Q 3956 4134 3956 3541 
Q 3956 3144 3739 2878 
Q 3522 2613 3097 2484 
Q 3572 2353 3814 2058 
Q 4056 1763 4056 1313 
Q 4056 619 3595 264 
Q 3134 -91 2228 -91 
Q 1319 -91 855 264 
Q 391 619 391 1313 
Q 391 1763 633 2058 
Q 875 2353 1350 2484 
z
M 1631 3419 
Q 1631 3141 1786 2991 
Q 1941 2841 2228 2841 
Q 2509 2841 2662 2991 
Q 2816 3141 2816 3419 
Q 2816 3697 2662 3845 
Q 2509 3994 2228 3994 
Q 1941 3994 1786 3844 
Q 1631 3694 1631 3419 
z
" transform="scale(0.015625)"/>
      </defs>
      <use xlink:href="#DejaVuSans-Bold-4d"/>
      <use xlink:href="#DejaVuSans-Bold-33" x="99.511719"/>
      <use xlink:href="#DejaVuSans-Bold-38" x="169.091797"/>
     </g>
    </g>
    <g id="PathCollection_20">
     <defs>
      <path id="me9f52cbc69" d="M 0 3 
C 0.795609 3 1.55874 2.683901 2.12132 2.12132 
C 2.683901 1.55874 3 0.795609 3 0 
C 3 -0.795609 2.683901 -1.55874 2.12132 -2.12132 
C 1.55874 -2.683901 0.795609 -3 0 -3 
C -0.795609 -3 -1.55874 -2.683901 -2.12132 -2.12132 
C -2.683901 -1.55874 -3 -0.795609 -3 0 
C -3 0.795609 -2.683901 1.55874 -2.12132 2.12132 
C -1.55874 2.683901 -0.795609 3 0 3 
z
" style="stroke: #ccb974; stroke-width: 0.8"/>
     </defs>
     <g>
      <use xlink:href="#me9f52cbc69" x="126.042125" y="176.263125" style="fill: #ccb974; stroke: #ccb974; stroke-width: 0.8"/>
     </g>
    </g>
    <g id="text_19">
     <!-- M39 -->
     <g style="fill: #262626" transform="translate(141.882125 178.573125) scale(0.088 -0.088)">
      <use xlink:href="#DejaVuSans-Bold-4d"/>
      <use xlink:href="#DejaVuSans-Bold-33" x="99.511719"/>
      <use xlink:href="#DejaVuSans-Bold-39" x="169.091797"/>
     </g>
    </g>
    <g id="PathCollection_21">
     <defs>
      <path id="m4aba737b70" d="M 0 3 
C 0.795609 3 1.55874 2.683901 2.12132 2.12132 
C 2.683901 1.55874 3 0.795609 3 0 
C 3 -0.795609 2.683901 -1.55874 2.12132 -2.12132 
C 1.55874 -2.683901 0.795609 -3 0 -3 
C -0.795609 -3 -1.55874 -2.683901 -2.12132 -2.12132 
C -2.683901 -1.55874 -3 -0.795609 -3 0 
C -3 0.795609 -2.683901 1.55874 -2.12132 2.12132 
C -1.55874 2.683901 -0.795609 3 0 3 
z
" style="stroke: #64b5cd; stroke-width: 0.8"/>
     </defs>
     <g>
      <use xlink:href="#m4aba737b70" x="126.042125" y="189.179875" style="fill: #64b5cd; stroke: #64b5cd; stroke-width: 0.8"/>
     </g>
    </g>
    <g id="text_20">
     <!-- M40 -->
     <g style="fill: #262626" transform="translate(141.882125 191.489875) scale(0.088 -0.088)">
      <use xlink:href="#DejaVuSans-Bold-4d"/>
      <use xlink:href="#DejaVuSans-Bold-34" x="99.511719"/>
      <use xlink:href="#DejaVuSans-Bold-30" x="169.091797"/>
     </g>
    </g>
   </g>
  </g>
 </g>
 <defs>
  <clipPath id="p0813162ae7">
   <rect x="46.079" y="7.2" width="251.1" height="194.04"/>
  </clipPath>
 </defs>
</svg>
