<?xml version="1.0" encoding="utf-8" standalone="no"?>
<!DOCTYPE svg PUBLIC "-//W3C//DTD SVG 1.1//EN"
  "http://www.w3.org/Graphics/SVG/1.1/DTD/svg11.dtd">
<svg xmlns:xlink="http://www.w3.org/1999/xlink" width="264.174375pt" height="198.52775pt" viewBox="0 0 264.174375 198.52775" xmlns="http://www.w3.org/2000/svg" version="1.1">
 <metadata>
  <rdf:RDF xmlns:dc="http://purl.org/dc/elements/1.1/" xmlns:cc="http://creativecommons.org/ns#" xmlns:rdf="http://www.w3.org/1999/02/22-rdf-syntax-ns#">
   <cc:Work>
    <dc:type rdf:resource="http://purl.org/dc/dcmitype/StillImage"/>
    <dc:date>2024-05-15T16:39:46.239104</dc:date>
    <dc:format>image/svg+xml</dc:format>
    <dc:creator>
     <cc:Agent>
      <dc:title>Matplotlib v3.7.1, https://matplotlib.org/</dc:title>
     </cc:Agent>
    </dc:creator>
   </cc:Work>
  </rdf:RDF>
 </metadata>
 <defs>
  <style type="text/css">*{stroke-linejoin: round; stroke-linecap: butt}</style>
 </defs>
 <g id="figure_1">
  <g id="patch_1">
   <path d="M 0 198.52775 
L 264.174375 198.52775 
L 264.174375 0 
L 0 0 
z
" style="fill: #ffffff"/>
  </g>
  <g id="axes_1">
   <g id="patch_2">
    <path d="M 39.654375 166.02 
L 256.974375 166.02 
L 256.974375 7.2 
L 39.654375 7.2 
z
" style="fill: #ffffff"/>
   </g>
   <g id="matplotlib.axis_1">
    <g id="xtick_1">
     <g id="line2d_1"/>
     <g id="text_1">
      <!-- D4-D5 -->
      <g style="fill: #262626" transform="translate(51.565125 176.206625) scale(0.088 -0.088)">
       <defs>
        <path id="DejaVuSans-Bold-44" d="M 1791 3756 
L 1791 909 
L 2222 909 
Q 2959 909 3348 1275 
Q 3738 1641 3738 2338 
Q 3738 3031 3350 3393 
Q 2963 3756 2222 3756 
L 1791 3756 
z
M 588 4666 
L 1856 4666 
Q 2919 4666 3439 4514 
Q 3959 4363 4331 4000 
Q 4659 3684 4818 3271 
Q 4978 2859 4978 2338 
Q 4978 1809 4818 1395 
Q 4659 981 4331 666 
Q 3956 303 3431 151 
Q 2906 0 1856 0 
L 588 0 
L 588 4666 
z
" transform="scale(0.015625)"/>
        <path id="DejaVuSans-Bold-34" d="M 2356 3675 
L 1038 1722 
L 2356 1722 
L 2356 3675 
z
M 2156 4666 
L 3494 4666 
L 3494 1722 
L 4159 1722 
L 4159 850 
L 3494 850 
L 3494 0 
L 2356 0 
L 2356 850 
L 288 850 
L 288 1881 
L 2156 4666 
z
" transform="scale(0.015625)"/>
        <path id="DejaVuSans-Bold-2d" d="M 347 2297 
L 2309 2297 
L 2309 1388 
L 347 1388 
L 347 2297 
z
" transform="scale(0.015625)"/>
        <path id="DejaVuSans-Bold-35" d="M 678 4666 
L 3669 4666 
L 3669 3781 
L 1638 3781 
L 1638 3059 
Q 1775 3097 1914 3117 
Q 2053 3138 2203 3138 
Q 3056 3138 3531 2711 
Q 4006 2284 4006 1522 
Q 4006 766 3489 337 
Q 2972 -91 2053 -91 
Q 1656 -91 1267 -14 
Q 878 63 494 219 
L 494 1166 
Q 875 947 1217 837 
Q 1559 728 1863 728 
Q 2300 728 2551 942 
Q 2803 1156 2803 1522 
Q 2803 1891 2551 2103 
Q 2300 2316 1863 2316 
Q 1603 2316 1309 2248 
Q 1016 2181 678 2041 
L 678 4666 
z
" transform="scale(0.015625)"/>
       </defs>
       <use xlink:href="#DejaVuSans-Bold-44"/>
       <use xlink:href="#DejaVuSans-Bold-34" x="83.007812"/>
       <use xlink:href="#DejaVuSans-Bold-2d" x="152.587891"/>
       <use xlink:href="#DejaVuSans-Bold-44" x="194.091797"/>
       <use xlink:href="#DejaVuSans-Bold-35" x="277.099609"/>
      </g>
     </g>
    </g>
    <g id="xtick_2">
     <g id="line2d_2"/>
     <g id="text_2">
      <!-- D5-D6 -->
      <g style="fill: #262626" transform="translate(105.895125 176.206625) scale(0.088 -0.088)">
       <defs>
        <path id="DejaVuSans-Bold-36" d="M 2316 2303 
Q 2000 2303 1842 2098 
Q 1684 1894 1684 1484 
Q 1684 1075 1842 870 
Q 2000 666 2316 666 
Q 2634 666 2792 870 
Q 2950 1075 2950 1484 
Q 2950 1894 2792 2098 
Q 2634 2303 2316 2303 
z
M 3803 4544 
L 3803 3681 
Q 3506 3822 3243 3889 
Q 2981 3956 2731 3956 
Q 2194 3956 1894 3657 
Q 1594 3359 1544 2772 
Q 1750 2925 1990 3001 
Q 2231 3078 2516 3078 
Q 3231 3078 3670 2659 
Q 4109 2241 4109 1563 
Q 4109 813 3618 361 
Q 3128 -91 2303 -91 
Q 1394 -91 895 523 
Q 397 1138 397 2266 
Q 397 3422 980 4083 
Q 1563 4744 2578 4744 
Q 2900 4744 3203 4694 
Q 3506 4644 3803 4544 
z
" transform="scale(0.015625)"/>
       </defs>
       <use xlink:href="#DejaVuSans-Bold-44"/>
       <use xlink:href="#DejaVuSans-Bold-35" x="83.007812"/>
       <use xlink:href="#DejaVuSans-Bold-2d" x="152.587891"/>
       <use xlink:href="#DejaVuSans-Bold-44" x="194.091797"/>
       <use xlink:href="#DejaVuSans-Bold-36" x="277.099609"/>
      </g>
     </g>
    </g>
    <g id="xtick_3">
     <g id="line2d_3"/>
     <g id="text_3">
      <!-- D5-D9 -->
      <g style="fill: #262626" transform="translate(160.225125 176.206625) scale(0.088 -0.088)">
       <defs>
        <path id="DejaVuSans-Bold-39" d="M 641 103 
L 641 966 
Q 928 831 1190 764 
Q 1453 697 1709 697 
Q 2247 697 2547 995 
Q 2847 1294 2900 1881 
Q 2688 1725 2447 1647 
Q 2206 1569 1925 1569 
Q 1209 1569 770 1986 
Q 331 2403 331 3084 
Q 331 3838 820 4291 
Q 1309 4744 2131 4744 
Q 3044 4744 3544 4128 
Q 4044 3513 4044 2388 
Q 4044 1231 3459 570 
Q 2875 -91 1856 -91 
Q 1528 -91 1228 -42 
Q 928 6 641 103 
z
M 2125 2350 
Q 2441 2350 2600 2554 
Q 2759 2759 2759 3169 
Q 2759 3575 2600 3781 
Q 2441 3988 2125 3988 
Q 1809 3988 1650 3781 
Q 1491 3575 1491 3169 
Q 1491 2759 1650 2554 
Q 1809 2350 2125 2350 
z
" transform="scale(0.015625)"/>
       </defs>
       <use xlink:href="#DejaVuSans-Bold-44"/>
       <use xlink:href="#DejaVuSans-Bold-35" x="83.007812"/>
       <use xlink:href="#DejaVuSans-Bold-2d" x="152.587891"/>
       <use xlink:href="#DejaVuSans-Bold-44" x="194.091797"/>
       <use xlink:href="#DejaVuSans-Bold-39" x="277.099609"/>
      </g>
     </g>
    </g>
    <g id="xtick_4">
     <g id="line2d_4"/>
     <g id="text_4">
      <!-- D5-D12 -->
      <g style="fill: #262626" transform="translate(211.493688 176.206625) scale(0.088 -0.088)">
       <defs>
        <path id="DejaVuSans-Bold-31" d="M 750 831 
L 1813 831 
L 1813 3847 
L 722 3622 
L 722 4441 
L 1806 4666 
L 2950 4666 
L 2950 831 
L 4013 831 
L 4013 0 
L 750 0 
L 750 831 
z
" transform="scale(0.015625)"/>
        <path id="DejaVuSans-Bold-32" d="M 1844 884 
L 3897 884 
L 3897 0 
L 506 0 
L 506 884 
L 2209 2388 
Q 2438 2594 2547 2791 
Q 2656 2988 2656 3200 
Q 2656 3528 2436 3728 
Q 2216 3928 1850 3928 
Q 1569 3928 1234 3808 
Q 900 3688 519 3450 
L 519 4475 
Q 925 4609 1322 4679 
Q 1719 4750 2100 4750 
Q 2938 4750 3402 4381 
Q 3866 4013 3866 3353 
Q 3866 2972 3669 2642 
Q 3472 2313 2841 1759 
L 1844 884 
z
" transform="scale(0.015625)"/>
       </defs>
       <use xlink:href="#DejaVuSans-Bold-44"/>
       <use xlink:href="#DejaVuSans-Bold-35" x="83.007812"/>
       <use xlink:href="#DejaVuSans-Bold-2d" x="152.587891"/>
       <use xlink:href="#DejaVuSans-Bold-44" x="194.091797"/>
       <use xlink:href="#DejaVuSans-Bold-31" x="277.099609"/>
       <use xlink:href="#DejaVuSans-Bold-32" x="346.679688"/>
      </g>
     </g>
    </g>
    <g id="text_5">
     <!-- Timepoints -->
     <g style="fill: #262626" transform="translate(118.189875 189.33125) scale(0.096 -0.096)">
      <defs>
       <path id="DejaVuSans-Bold-54" d="M 31 4666 
L 4331 4666 
L 4331 3756 
L 2784 3756 
L 2784 0 
L 1581 0 
L 1581 3756 
L 31 3756 
L 31 4666 
z
" transform="scale(0.015625)"/>
       <path id="DejaVuSans-Bold-69" d="M 538 3500 
L 1656 3500 
L 1656 0 
L 538 0 
L 538 3500 
z
M 538 4863 
L 1656 4863 
L 1656 3950 
L 538 3950 
L 538 4863 
z
" transform="scale(0.015625)"/>
       <path id="DejaVuSans-Bold-6d" d="M 3781 2919 
Q 3994 3244 4286 3414 
Q 4578 3584 4928 3584 
Q 5531 3584 5847 3212 
Q 6163 2841 6163 2131 
L 6163 0 
L 5038 0 
L 5038 1825 
Q 5041 1866 5042 1909 
Q 5044 1953 5044 2034 
Q 5044 2406 4934 2573 
Q 4825 2741 4581 2741 
Q 4263 2741 4089 2478 
Q 3916 2216 3909 1719 
L 3909 0 
L 2784 0 
L 2784 1825 
Q 2784 2406 2684 2573 
Q 2584 2741 2328 2741 
Q 2006 2741 1831 2477 
Q 1656 2213 1656 1722 
L 1656 0 
L 531 0 
L 531 3500 
L 1656 3500 
L 1656 2988 
Q 1863 3284 2130 3434 
Q 2397 3584 2719 3584 
Q 3081 3584 3359 3409 
Q 3638 3234 3781 2919 
z
" transform="scale(0.015625)"/>
       <path id="DejaVuSans-Bold-65" d="M 4031 1759 
L 4031 1441 
L 1416 1441 
Q 1456 1047 1700 850 
Q 1944 653 2381 653 
Q 2734 653 3104 758 
Q 3475 863 3866 1075 
L 3866 213 
Q 3469 63 3072 -14 
Q 2675 -91 2278 -91 
Q 1328 -91 801 392 
Q 275 875 275 1747 
Q 275 2603 792 3093 
Q 1309 3584 2216 3584 
Q 3041 3584 3536 3087 
Q 4031 2591 4031 1759 
z
M 2881 2131 
Q 2881 2450 2695 2645 
Q 2509 2841 2209 2841 
Q 1884 2841 1681 2658 
Q 1478 2475 1428 2131 
L 2881 2131 
z
" transform="scale(0.015625)"/>
       <path id="DejaVuSans-Bold-70" d="M 1656 506 
L 1656 -1331 
L 538 -1331 
L 538 3500 
L 1656 3500 
L 1656 2988 
Q 1888 3294 2169 3439 
Q 2450 3584 2816 3584 
Q 3463 3584 3878 3070 
Q 4294 2556 4294 1747 
Q 4294 938 3878 423 
Q 3463 -91 2816 -91 
Q 2450 -91 2169 54 
Q 1888 200 1656 506 
z
M 2400 2772 
Q 2041 2772 1848 2508 
Q 1656 2244 1656 1747 
Q 1656 1250 1848 986 
Q 2041 722 2400 722 
Q 2759 722 2948 984 
Q 3138 1247 3138 1747 
Q 3138 2247 2948 2509 
Q 2759 2772 2400 2772 
z
" transform="scale(0.015625)"/>
       <path id="DejaVuSans-Bold-6f" d="M 2203 2784 
Q 1831 2784 1636 2517 
Q 1441 2250 1441 1747 
Q 1441 1244 1636 976 
Q 1831 709 2203 709 
Q 2569 709 2762 976 
Q 2956 1244 2956 1747 
Q 2956 2250 2762 2517 
Q 2569 2784 2203 2784 
z
M 2203 3584 
Q 3106 3584 3614 3096 
Q 4122 2609 4122 1747 
Q 4122 884 3614 396 
Q 3106 -91 2203 -91 
Q 1297 -91 786 396 
Q 275 884 275 1747 
Q 275 2609 786 3096 
Q 1297 3584 2203 3584 
z
" transform="scale(0.015625)"/>
       <path id="DejaVuSans-Bold-6e" d="M 4056 2131 
L 4056 0 
L 2931 0 
L 2931 347 
L 2931 1631 
Q 2931 2084 2911 2256 
Q 2891 2428 2841 2509 
Q 2775 2619 2662 2680 
Q 2550 2741 2406 2741 
Q 2056 2741 1856 2470 
Q 1656 2200 1656 1722 
L 1656 0 
L 538 0 
L 538 3500 
L 1656 3500 
L 1656 2988 
Q 1909 3294 2193 3439 
Q 2478 3584 2822 3584 
Q 3428 3584 3742 3212 
Q 4056 2841 4056 2131 
z
" transform="scale(0.015625)"/>
       <path id="DejaVuSans-Bold-74" d="M 1759 4494 
L 1759 3500 
L 2913 3500 
L 2913 2700 
L 1759 2700 
L 1759 1216 
Q 1759 972 1856 886 
Q 1953 800 2241 800 
L 2816 800 
L 2816 0 
L 1856 0 
Q 1194 0 917 276 
Q 641 553 641 1216 
L 641 2700 
L 84 2700 
L 84 3500 
L 641 3500 
L 641 4494 
L 1759 4494 
z
" transform="scale(0.015625)"/>
       <path id="DejaVuSans-Bold-73" d="M 3272 3391 
L 3272 2541 
Q 2913 2691 2578 2766 
Q 2244 2841 1947 2841 
Q 1628 2841 1473 2761 
Q 1319 2681 1319 2516 
Q 1319 2381 1436 2309 
Q 1553 2238 1856 2203 
L 2053 2175 
Q 2913 2066 3209 1816 
Q 3506 1566 3506 1031 
Q 3506 472 3093 190 
Q 2681 -91 1863 -91 
Q 1516 -91 1145 -36 
Q 775 19 384 128 
L 384 978 
Q 719 816 1070 734 
Q 1422 653 1784 653 
Q 2113 653 2278 743 
Q 2444 834 2444 1013 
Q 2444 1163 2330 1236 
Q 2216 1309 1875 1350 
L 1678 1375 
Q 931 1469 631 1722 
Q 331 1975 331 2491 
Q 331 3047 712 3315 
Q 1094 3584 1881 3584 
Q 2191 3584 2531 3537 
Q 2872 3491 3272 3391 
z
" transform="scale(0.015625)"/>
      </defs>
      <use xlink:href="#DejaVuSans-Bold-54"/>
      <use xlink:href="#DejaVuSans-Bold-69" x="68.212891"/>
      <use xlink:href="#DejaVuSans-Bold-6d" x="102.490234"/>
      <use xlink:href="#DejaVuSans-Bold-65" x="206.689453"/>
      <use xlink:href="#DejaVuSans-Bold-70" x="274.511719"/>
      <use xlink:href="#DejaVuSans-Bold-6f" x="346.09375"/>
      <use xlink:href="#DejaVuSans-Bold-69" x="414.794922"/>
      <use xlink:href="#DejaVuSans-Bold-6e" x="449.072266"/>
      <use xlink:href="#DejaVuSans-Bold-74" x="520.263672"/>
      <use xlink:href="#DejaVuSans-Bold-73" x="568.066406"/>
     </g>
    </g>
   </g>
   <g id="matplotlib.axis_2">
    <g id="ytick_1">
     <g id="line2d_5">
      <defs>
       <path id="md91d0b9db4" d="M 0 0 
L 4 0 
" style="stroke: #262626"/>
      </defs>
      <g>
       <use xlink:href="#md91d0b9db4" x="39.654375" y="157.18437" style="fill: #262626; stroke: #262626"/>
      </g>
     </g>
     <g id="text_6">
      <!-- 0.2 -->
      <g style="fill: #262626" transform="translate(20.566 160.527683) scale(0.088 -0.088)">
       <defs>
        <path id="DejaVuSans-Bold-30" d="M 2944 2338 
Q 2944 3213 2780 3570 
Q 2616 3928 2228 3928 
Q 1841 3928 1675 3570 
Q 1509 3213 1509 2338 
Q 1509 1453 1675 1090 
Q 1841 728 2228 728 
Q 2613 728 2778 1090 
Q 2944 1453 2944 2338 
z
M 4147 2328 
Q 4147 1169 3647 539 
Q 3147 -91 2228 -91 
Q 1306 -91 806 539 
Q 306 1169 306 2328 
Q 306 3491 806 4120 
Q 1306 4750 2228 4750 
Q 3147 4750 3647 4120 
Q 4147 3491 4147 2328 
z
" transform="scale(0.015625)"/>
        <path id="DejaVuSans-Bold-2e" d="M 653 1209 
L 1778 1209 
L 1778 0 
L 653 0 
L 653 1209 
z
" transform="scale(0.015625)"/>
       </defs>
       <use xlink:href="#DejaVuSans-Bold-30"/>
       <use xlink:href="#DejaVuSans-Bold-2e" x="69.580078"/>
       <use xlink:href="#DejaVuSans-Bold-32" x="107.568359"/>
      </g>
     </g>
    </g>
    <g id="ytick_2">
     <g id="line2d_6">
      <g>
       <use xlink:href="#md91d0b9db4" x="39.654375" y="125.632928" style="fill: #262626; stroke: #262626"/>
      </g>
     </g>
     <g id="text_7">
      <!-- 0.3 -->
      <g style="fill: #262626" transform="translate(20.566 128.97624) scale(0.088 -0.088)">
       <defs>
        <path id="DejaVuSans-Bold-33" d="M 2981 2516 
Q 3453 2394 3698 2092 
Q 3944 1791 3944 1325 
Q 3944 631 3412 270 
Q 2881 -91 1863 -91 
Q 1503 -91 1142 -33 
Q 781 25 428 141 
L 428 1069 
Q 766 900 1098 814 
Q 1431 728 1753 728 
Q 2231 728 2486 893 
Q 2741 1059 2741 1369 
Q 2741 1688 2480 1852 
Q 2219 2016 1709 2016 
L 1228 2016 
L 1228 2791 
L 1734 2791 
Q 2188 2791 2409 2933 
Q 2631 3075 2631 3366 
Q 2631 3634 2415 3781 
Q 2200 3928 1806 3928 
Q 1516 3928 1219 3862 
Q 922 3797 628 3669 
L 628 4550 
Q 984 4650 1334 4700 
Q 1684 4750 2022 4750 
Q 2931 4750 3382 4451 
Q 3834 4153 3834 3553 
Q 3834 3144 3618 2883 
Q 3403 2622 2981 2516 
z
" transform="scale(0.015625)"/>
       </defs>
       <use xlink:href="#DejaVuSans-Bold-30"/>
       <use xlink:href="#DejaVuSans-Bold-2e" x="69.580078"/>
       <use xlink:href="#DejaVuSans-Bold-33" x="107.568359"/>
      </g>
     </g>
    </g>
    <g id="ytick_3">
     <g id="line2d_7">
      <g>
       <use xlink:href="#md91d0b9db4" x="39.654375" y="94.081485" style="fill: #262626; stroke: #262626"/>
      </g>
     </g>
     <g id="text_8">
      <!-- 0.4 -->
      <g style="fill: #262626" transform="translate(20.566 97.424798) scale(0.088 -0.088)">
       <use xlink:href="#DejaVuSans-Bold-30"/>
       <use xlink:href="#DejaVuSans-Bold-2e" x="69.580078"/>
       <use xlink:href="#DejaVuSans-Bold-34" x="107.568359"/>
      </g>
     </g>
    </g>
    <g id="ytick_4">
     <g id="line2d_8">
      <g>
       <use xlink:href="#md91d0b9db4" x="39.654375" y="62.530043" style="fill: #262626; stroke: #262626"/>
      </g>
     </g>
     <g id="text_9">
      <!-- 0.5 -->
      <g style="fill: #262626" transform="translate(20.566 65.873355) scale(0.088 -0.088)">
       <use xlink:href="#DejaVuSans-Bold-30"/>
       <use xlink:href="#DejaVuSans-Bold-2e" x="69.580078"/>
       <use xlink:href="#DejaVuSans-Bold-35" x="107.568359"/>
      </g>
     </g>
    </g>
    <g id="ytick_5">
     <g id="line2d_9">
      <g>
       <use xlink:href="#md91d0b9db4" x="39.654375" y="30.9786" style="fill: #262626; stroke: #262626"/>
      </g>
     </g>
     <g id="text_10">
      <!-- 0.6 -->
      <g style="fill: #262626" transform="translate(20.566 34.321913) scale(0.088 -0.088)">
       <use xlink:href="#DejaVuSans-Bold-30"/>
       <use xlink:href="#DejaVuSans-Bold-2e" x="69.580078"/>
       <use xlink:href="#DejaVuSans-Bold-36" x="107.568359"/>
      </g>
     </g>
    </g>
    <g id="text_11">
     <!-- Weighted UniFrac -->
     <g style="fill: #262626" transform="translate(14.4945 134.526) rotate(-90) scale(0.096 -0.096)">
      <defs>
       <path id="DejaVuSans-Bold-57" d="M 191 4666 
L 1344 4666 
L 2150 1275 
L 2950 4666 
L 4109 4666 
L 4909 1275 
L 5716 4666 
L 6859 4666 
L 5759 0 
L 4372 0 
L 3525 3547 
L 2688 0 
L 1300 0 
L 191 4666 
z
" transform="scale(0.015625)"/>
       <path id="DejaVuSans-Bold-67" d="M 2919 594 
Q 2688 288 2409 144 
Q 2131 0 1766 0 
Q 1125 0 706 504 
Q 288 1009 288 1791 
Q 288 2575 706 3076 
Q 1125 3578 1766 3578 
Q 2131 3578 2409 3434 
Q 2688 3291 2919 2981 
L 2919 3500 
L 4044 3500 
L 4044 353 
Q 4044 -491 3511 -936 
Q 2978 -1381 1966 -1381 
Q 1638 -1381 1331 -1331 
Q 1025 -1281 716 -1178 
L 716 -306 
Q 1009 -475 1290 -558 
Q 1572 -641 1856 -641 
Q 2406 -641 2662 -400 
Q 2919 -159 2919 353 
L 2919 594 
z
M 2181 2772 
Q 1834 2772 1640 2515 
Q 1447 2259 1447 1791 
Q 1447 1309 1634 1061 
Q 1822 813 2181 813 
Q 2531 813 2725 1069 
Q 2919 1325 2919 1791 
Q 2919 2259 2725 2515 
Q 2531 2772 2181 2772 
z
" transform="scale(0.015625)"/>
       <path id="DejaVuSans-Bold-68" d="M 4056 2131 
L 4056 0 
L 2931 0 
L 2931 347 
L 2931 1625 
Q 2931 2084 2911 2256 
Q 2891 2428 2841 2509 
Q 2775 2619 2662 2680 
Q 2550 2741 2406 2741 
Q 2056 2741 1856 2470 
Q 1656 2200 1656 1722 
L 1656 0 
L 538 0 
L 538 4863 
L 1656 4863 
L 1656 2988 
Q 1909 3294 2193 3439 
Q 2478 3584 2822 3584 
Q 3428 3584 3742 3212 
Q 4056 2841 4056 2131 
z
" transform="scale(0.015625)"/>
       <path id="DejaVuSans-Bold-64" d="M 2919 2988 
L 2919 4863 
L 4044 4863 
L 4044 0 
L 2919 0 
L 2919 506 
Q 2688 197 2409 53 
Q 2131 -91 1766 -91 
Q 1119 -91 703 423 
Q 288 938 288 1747 
Q 288 2556 703 3070 
Q 1119 3584 1766 3584 
Q 2128 3584 2408 3439 
Q 2688 3294 2919 2988 
z
M 2181 722 
Q 2541 722 2730 984 
Q 2919 1247 2919 1747 
Q 2919 2247 2730 2509 
Q 2541 2772 2181 2772 
Q 1825 2772 1636 2509 
Q 1447 2247 1447 1747 
Q 1447 1247 1636 984 
Q 1825 722 2181 722 
z
" transform="scale(0.015625)"/>
       <path id="DejaVuSans-Bold-20" transform="scale(0.015625)"/>
       <path id="DejaVuSans-Bold-55" d="M 588 4666 
L 1791 4666 
L 1791 1869 
Q 1791 1291 1980 1042 
Q 2169 794 2597 794 
Q 3028 794 3217 1042 
Q 3406 1291 3406 1869 
L 3406 4666 
L 4609 4666 
L 4609 1869 
Q 4609 878 4112 393 
Q 3616 -91 2597 -91 
Q 1581 -91 1084 393 
Q 588 878 588 1869 
L 588 4666 
z
" transform="scale(0.015625)"/>
       <path id="DejaVuSans-Bold-46" d="M 588 4666 
L 3834 4666 
L 3834 3756 
L 1791 3756 
L 1791 2888 
L 3713 2888 
L 3713 1978 
L 1791 1978 
L 1791 0 
L 588 0 
L 588 4666 
z
" transform="scale(0.015625)"/>
       <path id="DejaVuSans-Bold-72" d="M 3138 2547 
Q 2991 2616 2845 2648 
Q 2700 2681 2553 2681 
Q 2122 2681 1889 2404 
Q 1656 2128 1656 1613 
L 1656 0 
L 538 0 
L 538 3500 
L 1656 3500 
L 1656 2925 
Q 1872 3269 2151 3426 
Q 2431 3584 2822 3584 
Q 2878 3584 2943 3579 
Q 3009 3575 3134 3559 
L 3138 2547 
z
" transform="scale(0.015625)"/>
       <path id="DejaVuSans-Bold-61" d="M 2106 1575 
Q 1756 1575 1579 1456 
Q 1403 1338 1403 1106 
Q 1403 894 1545 773 
Q 1688 653 1941 653 
Q 2256 653 2472 879 
Q 2688 1106 2688 1447 
L 2688 1575 
L 2106 1575 
z
M 3816 1997 
L 3816 0 
L 2688 0 
L 2688 519 
Q 2463 200 2181 54 
Q 1900 -91 1497 -91 
Q 953 -91 614 226 
Q 275 544 275 1050 
Q 275 1666 698 1953 
Q 1122 2241 2028 2241 
L 2688 2241 
L 2688 2328 
Q 2688 2594 2478 2717 
Q 2269 2841 1825 2841 
Q 1466 2841 1156 2769 
Q 847 2697 581 2553 
L 581 3406 
Q 941 3494 1303 3539 
Q 1666 3584 2028 3584 
Q 2975 3584 3395 3211 
Q 3816 2838 3816 1997 
z
" transform="scale(0.015625)"/>
       <path id="DejaVuSans-Bold-63" d="M 3366 3391 
L 3366 2478 
Q 3138 2634 2908 2709 
Q 2678 2784 2431 2784 
Q 1963 2784 1702 2511 
Q 1441 2238 1441 1747 
Q 1441 1256 1702 982 
Q 1963 709 2431 709 
Q 2694 709 2930 787 
Q 3166 866 3366 1019 
L 3366 103 
Q 3103 6 2833 -42 
Q 2563 -91 2291 -91 
Q 1344 -91 809 395 
Q 275 881 275 1747 
Q 275 2613 809 3098 
Q 1344 3584 2291 3584 
Q 2566 3584 2833 3536 
Q 3100 3488 3366 3391 
z
" transform="scale(0.015625)"/>
      </defs>
      <use xlink:href="#DejaVuSans-Bold-57"/>
      <use xlink:href="#DejaVuSans-Bold-65" x="106.677734"/>
      <use xlink:href="#DejaVuSans-Bold-69" x="174.5"/>
      <use xlink:href="#DejaVuSans-Bold-67" x="208.777344"/>
      <use xlink:href="#DejaVuSans-Bold-68" x="280.359375"/>
      <use xlink:href="#DejaVuSans-Bold-74" x="351.550781"/>
      <use xlink:href="#DejaVuSans-Bold-65" x="399.353516"/>
      <use xlink:href="#DejaVuSans-Bold-64" x="467.175781"/>
      <use xlink:href="#DejaVuSans-Bold-20" x="538.757812"/>
      <use xlink:href="#DejaVuSans-Bold-55" x="573.572266"/>
      <use xlink:href="#DejaVuSans-Bold-6e" x="654.773438"/>
      <use xlink:href="#DejaVuSans-Bold-69" x="725.964844"/>
      <use xlink:href="#DejaVuSans-Bold-46" x="760.242188"/>
      <use xlink:href="#DejaVuSans-Bold-72" x="822.177734"/>
      <use xlink:href="#DejaVuSans-Bold-61" x="871.494141"/>
      <use xlink:href="#DejaVuSans-Bold-63" x="938.974609"/>
     </g>
    </g>
   </g>
   <g id="patch_3">
    <path d="M 45.087375 139.546538 
L 88.551375 139.546538 
L 88.551375 99.477405 
L 45.087375 99.477405 
L 45.087375 139.546538 
z
" clip-path="url(#p09a97b8030)" style="fill: #5875a4; stroke: #4c4c4c; stroke-width: 1.5; stroke-linejoin: miter"/>
   </g>
   <g id="patch_4">
    <path d="M 99.417375 144.086832 
L 142.881375 144.086832 
L 142.881375 124.494579 
L 99.417375 124.494579 
L 99.417375 144.086832 
z
" clip-path="url(#p09a97b8030)" style="fill: #cc8963; stroke: #4c4c4c; stroke-width: 1.5; stroke-linejoin: miter"/>
   </g>
   <g id="patch_5">
    <path d="M 153.747375 144.486426 
L 197.211375 144.486426 
L 197.211375 128.769409 
L 153.747375 128.769409 
L 153.747375 144.486426 
z
" clip-path="url(#p09a97b8030)" style="fill: #5f9e6e; stroke: #4c4c4c; stroke-width: 1.5; stroke-linejoin: miter"/>
   </g>
   <g id="patch_6">
    <path d="M 208.077375 140.245894 
L 251.541375 140.245894 
L 251.541375 119.19055 
L 208.077375 119.19055 
L 208.077375 140.245894 
z
" clip-path="url(#p09a97b8030)" style="fill: #b55d60; stroke: #4c4c4c; stroke-width: 1.5; stroke-linejoin: miter"/>
   </g>
   <g id="line2d_10">
    <path d="M 66.819375 139.546538 
L 66.819375 146.448277 
" clip-path="url(#p09a97b8030)" style="fill: none; stroke: #4c4c4c; stroke-width: 1.5; stroke-linecap: round"/>
   </g>
   <g id="line2d_11">
    <path d="M 66.819375 99.477405 
L 66.819375 91.948807 
" clip-path="url(#p09a97b8030)" style="fill: none; stroke: #4c4c4c; stroke-width: 1.5; stroke-linecap: round"/>
   </g>
   <g id="line2d_12">
    <path d="M 55.953375 146.448277 
L 77.685375 146.448277 
" clip-path="url(#p09a97b8030)" style="fill: none; stroke: #4c4c4c; stroke-width: 1.5; stroke-linecap: round"/>
   </g>
   <g id="line2d_13">
    <path d="M 55.953375 91.948807 
L 77.685375 91.948807 
" clip-path="url(#p09a97b8030)" style="fill: none; stroke: #4c4c4c; stroke-width: 1.5; stroke-linecap: round"/>
   </g>
   <g id="line2d_14">
    <defs>
     <path id="m8a3e55935c" d="M -0 3.535534 
L 2.12132 0 
L -0 -3.535534 
L -2.12132 -0 
z
" style="stroke: #4c4c4c; stroke-linejoin: miter"/>
    </defs>
    <g clip-path="url(#p09a97b8030)">
     <use xlink:href="#m8a3e55935c" x="66.819375" y="14.419091" style="fill: #4c4c4c; stroke: #4c4c4c; stroke-linejoin: miter"/>
    </g>
   </g>
   <g id="line2d_15">
    <path d="M 121.149375 144.086832 
L 121.149375 156.323027 
" clip-path="url(#p09a97b8030)" style="fill: none; stroke: #4c4c4c; stroke-width: 1.5; stroke-linecap: round"/>
   </g>
   <g id="line2d_16">
    <path d="M 121.149375 124.494579 
L 121.149375 110.31858 
" clip-path="url(#p09a97b8030)" style="fill: none; stroke: #4c4c4c; stroke-width: 1.5; stroke-linecap: round"/>
   </g>
   <g id="line2d_17">
    <path d="M 110.283375 156.323027 
L 132.015375 156.323027 
" clip-path="url(#p09a97b8030)" style="fill: none; stroke: #4c4c4c; stroke-width: 1.5; stroke-linecap: round"/>
   </g>
   <g id="line2d_18">
    <path d="M 110.283375 110.31858 
L 132.015375 110.31858 
" clip-path="url(#p09a97b8030)" style="fill: none; stroke: #4c4c4c; stroke-width: 1.5; stroke-linecap: round"/>
   </g>
   <g id="line2d_19"/>
   <g id="line2d_20">
    <path d="M 175.479375 144.486426 
L 175.479375 147.84426 
" clip-path="url(#p09a97b8030)" style="fill: none; stroke: #4c4c4c; stroke-width: 1.5; stroke-linecap: round"/>
   </g>
   <g id="line2d_21">
    <path d="M 175.479375 128.769409 
L 175.479375 110.147198 
" clip-path="url(#p09a97b8030)" style="fill: none; stroke: #4c4c4c; stroke-width: 1.5; stroke-linecap: round"/>
   </g>
   <g id="line2d_22">
    <path d="M 164.613375 147.84426 
L 186.345375 147.84426 
" clip-path="url(#p09a97b8030)" style="fill: none; stroke: #4c4c4c; stroke-width: 1.5; stroke-linecap: round"/>
   </g>
   <g id="line2d_23">
    <path d="M 164.613375 110.147198 
L 186.345375 110.147198 
" clip-path="url(#p09a97b8030)" style="fill: none; stroke: #4c4c4c; stroke-width: 1.5; stroke-linecap: round"/>
   </g>
   <g id="line2d_24"/>
   <g id="line2d_25">
    <path d="M 229.809375 140.245894 
L 229.809375 158.800909 
" clip-path="url(#p09a97b8030)" style="fill: none; stroke: #4c4c4c; stroke-width: 1.5; stroke-linecap: round"/>
   </g>
   <g id="line2d_26">
    <path d="M 229.809375 119.19055 
L 229.809375 118.802233 
" clip-path="url(#p09a97b8030)" style="fill: none; stroke: #4c4c4c; stroke-width: 1.5; stroke-linecap: round"/>
   </g>
   <g id="line2d_27">
    <path d="M 218.943375 158.800909 
L 240.675375 158.800909 
" clip-path="url(#p09a97b8030)" style="fill: none; stroke: #4c4c4c; stroke-width: 1.5; stroke-linecap: round"/>
   </g>
   <g id="line2d_28">
    <path d="M 218.943375 118.802233 
L 240.675375 118.802233 
" clip-path="url(#p09a97b8030)" style="fill: none; stroke: #4c4c4c; stroke-width: 1.5; stroke-linecap: round"/>
   </g>
   <g id="line2d_29"/>
   <g id="line2d_30">
    <path d="M 45.087375 130.532581 
L 88.551375 130.532581 
" clip-path="url(#p09a97b8030)" style="fill: none; stroke: #4c4c4c; stroke-width: 1.5; stroke-linecap: round"/>
   </g>
   <g id="line2d_31">
    <path d="M 99.417375 127.869869 
L 142.881375 127.869869 
" clip-path="url(#p09a97b8030)" style="fill: none; stroke: #4c4c4c; stroke-width: 1.5; stroke-linecap: round"/>
   </g>
   <g id="line2d_32">
    <path d="M 153.747375 132.749493 
L 197.211375 132.749493 
" clip-path="url(#p09a97b8030)" style="fill: none; stroke: #4c4c4c; stroke-width: 1.5; stroke-linecap: round"/>
   </g>
   <g id="line2d_33">
    <path d="M 208.077375 137.43295 
L 251.541375 137.43295 
" clip-path="url(#p09a97b8030)" style="fill: none; stroke: #4c4c4c; stroke-width: 1.5; stroke-linecap: round"/>
   </g>
   <g id="patch_7">
    <path d="M 39.654375 166.02 
L 39.654375 7.2 
" style="fill: none; stroke: #262626; stroke-linejoin: miter; stroke-linecap: square"/>
   </g>
   <g id="patch_8">
    <path d="M 256.974375 166.02 
L 256.974375 7.2 
" style="fill: none; stroke: #262626; stroke-linejoin: miter; stroke-linecap: square"/>
   </g>
   <g id="patch_9">
    <path d="M 39.654375 166.02 
L 256.974375 166.02 
" style="fill: none; stroke: #262626; stroke-linejoin: miter; stroke-linecap: square"/>
   </g>
   <g id="patch_10">
    <path d="M 39.654375 7.2 
L 256.974375 7.2 
" style="fill: none; stroke: #262626; stroke-linejoin: miter; stroke-linecap: square"/>
   </g>
  </g>
 </g>
 <defs>
  <clipPath id="p09a97b8030">
   <rect x="39.654375" y="7.2" width="217.32" height="158.82"/>
  </clipPath>
 </defs>
</svg>
